<?xml version="1.0" encoding="UTF-8"?>
<svg id="Calque_2" data-name="Calque 2" xmlns="http://www.w3.org/2000/svg" viewBox="0 0 20 20">
  <defs>
    <style>
      .cls-1 {
        fill: #fff;
      }
    </style>
  </defs>
  <g id="Calque_1-2" data-name="Calque 1">
    <g>
      <path class="cls-1" d="m12.55,11.05c-.29.18-.57.41-.83.66-.26.26-.48.54-.66.83h0c-.34-.08-.69-.12-1.05-.12s-.72.04-1.06.12c-.18-.29-.41-.57-.66-.83-.26-.26-.53-.47-.83-.66.08-.34.11-.69.11-1.05s-.04-.72-.12-1.06c.29-.18.57-.41.83-.66.26-.26.48-.53.66-.83.34.08.7.11,1.06.11s.72-.04,1.06-.12c.18.29.41.57.66.83.26.26.53.48.83.66-.08.34-.11.69-.11,1.06s.04.71.12,1.05Z"/>
      <path class="cls-1" d="m7.41,4.57c-.13.43-.34.84-.62,1.22-.82-.83-1.33-1.99-1.33-3.26,0-.08,0-.16,0-.23.37.95,1.06,1.74,1.94,2.28Z"/>
      <path class="cls-1" d="m7.54,4.08c-.94-.62-1.64-1.59-1.93-2.72.09-.35.22-.68.39-1,.34.1.67.25.98.44,0,0,0,0,0,0,.6,1.01.78,2.18.56,3.28Z"/>
      <path class="cls-1" d="m7.85,4.8c.44.21.92.36,1.42.43-.05.6-.23,1.2-.52,1.74-.59-.17-1.14-.47-1.6-.86.31-.41.54-.86.7-1.31Z"/>
      <path class="cls-1" d="m7.75,1.36c.05.05.11.1.16.16.9.9,1.36,2.08,1.38,3.24-.46-.07-.9-.22-1.3-.42.24-1,.17-2.05-.24-2.97Z"/>
      <path class="cls-1" d="m12.49,4.06c-.2-1.09,0-2.25.6-3.24.3-.18.61-.31.94-.42.16.3.28.62.36.96-.29,1.12-.97,2.08-1.89,2.7Z"/>
      <path class="cls-1" d="m12.05,4.32c-.4.21-.84.36-1.3.44.03-1.17.49-2.33,1.4-3.23.05-.05.11-.11.17-.16-.41.92-.5,1.95-.27,2.95Z"/>
      <path class="cls-1" d="m12.86,6.11c-.46.39-1,.68-1.59.86-.29-.54-.46-1.14-.5-1.74.5-.08.98-.23,1.42-.44.16.46.38.91.68,1.32Z"/>
      <path class="cls-1" d="m14.53,2.53c0,1.27-.5,2.42-1.32,3.26-.26-.38-.47-.8-.6-1.23.86-.53,1.54-1.32,1.91-2.25,0,.08,0,.15,0,.22Z"/>
      <path class="cls-1" d="m7.54,4.08c-.94-.62-1.64-1.59-1.93-2.72.09-.35.22-.68.39-1,.34.1.67.25.98.44,0,0,0,0,0,0,.6,1.01.78,2.18.56,3.28Z"/>
      <path class="cls-1" d="m7.98,4.34c.24-1,.17-2.05-.24-2.97.05.05.11.1.16.16.9.9,1.36,2.08,1.38,3.24-.46-.07-.9-.22-1.3-.42Z"/>
      <path class="cls-1" d="m12.05,4.32c-.4.21-.84.36-1.3.44.03-1.17.49-2.33,1.4-3.23.05-.05.11-.11.17-.16-.41.92-.5,1.95-.27,2.95Z"/>
      <path class="cls-1" d="m12.49,4.06c-.2-1.09,0-2.25.6-3.24.3-.18.61-.31.94-.42.16.3.28.62.36.96-.29,1.12-.97,2.08-1.89,2.7Z"/>
      <path class="cls-1" d="m7.54,4.08c-.94-.62-1.64-1.59-1.93-2.72.09-.35.22-.68.39-1,.34.1.67.25.98.44,0,0,0,0,0,0,.6,1.01.78,2.18.56,3.28Z"/>
      <path class="cls-1" d="m7.98,4.34c.24-1,.17-2.05-.24-2.97.05.05.11.1.16.16.9.9,1.36,2.08,1.38,3.24-.46-.07-.9-.22-1.3-.42Z"/>
      <path class="cls-1" d="m12.05,4.32c-.4.21-.84.36-1.3.44.03-1.17.49-2.33,1.4-3.23.05-.05.11-.11.17-.16-.41.92-.5,1.95-.27,2.95Z"/>
      <path class="cls-1" d="m14.38,1.36c-.29,1.12-.97,2.08-1.89,2.7-.2-1.09,0-2.25.6-3.24.3-.18.61-.31.94-.42.16.3.28.62.36.96Z"/>
      <path class="cls-1" d="m.79,7h0c-.19-.33-.34-.67-.45-1.02.33-.18.68-.31,1.05-.4,1.14.3,2.11,1.02,2.72,1.98-1.11.24-2.3.05-3.32-.55Z"/>
      <path class="cls-1" d="m4.37,7.99c.2.41.34.85.4,1.31-1.17,0-2.35-.47-3.25-1.37-.05-.05-.11-.11-.16-.17.94.41,2,.48,3.01.23Z"/>
      <path class="cls-1" d="m2.32,5.44c.08,0,.16,0,.23,0,1.27,0,2.43.52,3.27,1.34-.38.28-.79.49-1.22.64-.52-.89-1.33-1.59-2.28-1.98Z"/>
      <path class="cls-1" d="m6.98,8.75c-.55.3-1.14.48-1.74.54-.07-.51-.21-.99-.42-1.43.46-.17.9-.41,1.31-.72.39.47.68,1.01.85,1.61Z"/>
      <path class="cls-1" d="m8.52,7.34c-.15.23-.33.44-.53.64h0c-.2.21-.42.39-.65.54-.19-.6-.5-1.16-.9-1.64.08-.07.15-.14.23-.21s.15-.15.22-.23c.48.4,1.03.71,1.64.9Z"/>
      <path class="cls-1" d="m7.41,4.57c-.13.43-.34.84-.62,1.22-.82-.83-1.33-1.99-1.33-3.26,0-.08,0-.16,0-.23.37.95,1.06,1.74,1.94,2.28Z"/>
      <path class="cls-1" d="m7.54,4.08c-.94-.62-1.64-1.59-1.93-2.72.09-.35.22-.68.39-1,.34.1.67.25.98.44,0,0,0,0,0,0,.6,1.01.78,2.18.56,3.28Z"/>
      <path class="cls-1" d="m7.85,4.8c.44.21.92.36,1.42.43-.05.6-.23,1.2-.52,1.74-.59-.17-1.14-.47-1.6-.86.31-.41.54-.86.7-1.31Z"/>
      <path class="cls-1" d="m7.75,1.36c.05.05.11.1.16.16.9.9,1.36,2.08,1.38,3.24-.46-.07-.9-.22-1.3-.42.24-1,.17-2.05-.24-2.97Z"/>
      <path class="cls-1" d="m4.11,7.55c-1.11.24-2.3.05-3.32-.55h0c-.19-.33-.34-.67-.45-1.02.33-.18.68-.31,1.05-.4,1.14.3,2.11,1.02,2.72,1.98Z"/>
      <path class="cls-1" d="m5.82,6.78c-.38.28-.79.49-1.22.64-.52-.89-1.33-1.59-2.28-1.98.08,0,.16,0,.23,0,1.27,0,2.43.52,3.27,1.34Z"/>
      <path class="cls-1" d="m7.41,4.57c-.13.43-.34.84-.62,1.22-.82-.83-1.33-1.99-1.33-3.26,0-.08,0-.16,0-.23.37.95,1.06,1.74,1.94,2.28Z"/>
      <path class="cls-1" d="m7.54,4.08c-.94-.62-1.64-1.59-1.93-2.72.09-.35.22-.68.39-1,.34.1.67.25.98.44,0,0,0,0,0,0,.6,1.01.78,2.18.56,3.28Z"/>
      <path class="cls-1" d="m4.11,7.55c-1.11.24-2.3.05-3.32-.55h0c-.19-.33-.34-.67-.45-1.02.33-.18.68-.31,1.05-.4,1.14.3,2.11,1.02,2.72,1.98Z"/>
      <path class="cls-1" d="m5.82,6.78c-.38.28-.79.49-1.22.64-.52-.89-1.33-1.59-2.28-1.98.08,0,.16,0,.23,0,1.27,0,2.43.52,3.27,1.34Z"/>
      <path class="cls-1" d="m7.41,4.57c-.13.43-.34.84-.62,1.22-.82-.83-1.33-1.99-1.33-3.26,0-.08,0-.16,0-.23.37.95,1.06,1.74,1.94,2.28Z"/>
      <path class="cls-1" d="m7.54,4.08c-.94-.62-1.64-1.59-1.93-2.72.09-.35.22-.68.39-1,.34.1.67.25.98.44,0,0,0,0,0,0,.6,1.01.78,2.18.56,3.28Z"/>
      <path class="cls-1" d="m.79,7h0c-.19-.33-.34-.67-.45-1.02.33-.18.68-.31,1.05-.4,1.14.3,2.11,1.02,2.72,1.98-1.11.24-2.3.05-3.32-.55Z"/>
      <path class="cls-1" d="m4.37,7.99c.2.41.34.85.4,1.31-1.17,0-2.35-.47-3.25-1.37-.05-.05-.11-.11-.16-.17.94.41,2,.48,3.01.23Z"/>
      <path class="cls-1" d="m2.32,5.44c.08,0,.16,0,.23,0,1.27,0,2.43.52,3.27,1.34-.38.28-.79.49-1.22.64-.52-.89-1.33-1.59-2.28-1.98Z"/>
      <path class="cls-1" d="m6.98,8.75c-.55.3-1.14.48-1.74.54-.07-.51-.21-.99-.42-1.43.46-.17.9-.41,1.31-.72.39.47.68,1.01.85,1.61Z"/>
      <path class="cls-1" d="m1.33,14.34c-.36-.1-.7-.23-1.02-.4.11-.34.26-.68.45-1h0c1.02-.6,2.21-.78,3.32-.53-.62.95-1.6,1.65-2.75,1.94Z"/>
      <path class="cls-1" d="m5.79,13.18c-.84.82-2,1.32-3.28,1.31-.08,0-.15,0-.23,0,.95-.37,1.75-1.06,2.29-1.94.43.15.84.36,1.22.64Z"/>
      <path class="cls-1" d="m4.76,10.66c-.08.46-.22.9-.43,1.31-1-.26-2.05-.2-2.99.2.05-.05.1-.11.16-.16.91-.9,2.09-1.35,3.27-1.35Z"/>
      <path class="cls-1" d="m5.24,10.69c.6.06,1.19.24,1.73.55-.18.6-.47,1.14-.86,1.6-.41-.31-.85-.55-1.3-.72.21-.44.36-.92.44-1.43Z"/>
      <path class="cls-1" d="m7.15,9.97v.03c0,.29-.03.57-.08.83-.57-.29-1.17-.46-1.79-.52,0-.11.01-.23.01-.34,0-.1,0-.19,0-.29.62-.06,1.23-.23,1.79-.53.05.26.08.53.08.8Z"/>
      <path class="cls-1" d="m.79,7h0c-.19-.33-.34-.67-.45-1.02.33-.18.68-.31,1.05-.4,1.14.3,2.11,1.02,2.72,1.98-1.11.24-2.3.05-3.32-.55Z"/>
      <path class="cls-1" d="m4.77,9.3c-1.17,0-2.35-.47-3.25-1.37-.05-.05-.11-.11-.16-.17.94.41,2,.48,3.01.23.2.41.34.85.4,1.31Z"/>
      <path class="cls-1" d="m4.08,12.41c-.62.95-1.6,1.65-2.75,1.94-.36-.1-.7-.23-1.02-.4.11-.34.26-.68.45-1h0c1.02-.6,2.21-.78,3.32-.53Z"/>
      <path class="cls-1" d="m4.76,10.66c-.08.46-.22.9-.43,1.31-1-.26-2.05-.2-2.99.2.05-.05.1-.11.16-.16.91-.9,2.09-1.35,3.27-1.35Z"/>
      <path class="cls-1" d="m.79,7h0c-.19-.33-.34-.67-.45-1.02.33-.18.68-.31,1.05-.4,1.14.3,2.11,1.02,2.72,1.98-1.11.24-2.3.05-3.32-.55Z"/>
      <path class="cls-1" d="m4.77,9.3c-1.17,0-2.35-.47-3.25-1.37-.05-.05-.11-.11-.16-.17.94.41,2,.48,3.01.23.2.41.34.85.4,1.31Z"/>
      <path class="cls-1" d="m4.08,12.41c-.62.95-1.6,1.65-2.75,1.94-.36-.1-.7-.23-1.02-.4.11-.34.26-.68.45-1h0c1.02-.6,2.21-.78,3.32-.53Z"/>
      <path class="cls-1" d="m4.76,10.66c-.08.46-.22.9-.43,1.31-1-.26-2.05-.2-2.99.2.05-.05.1-.11.16-.16.91-.9,2.09-1.35,3.27-1.35Z"/>
      <path class="cls-1" d="m1.33,14.34c-.36-.1-.7-.23-1.02-.4.11-.34.26-.68.45-1h0c1.02-.6,2.21-.78,3.32-.53-.62.95-1.6,1.65-2.75,1.94Z"/>
      <path class="cls-1" d="m5.79,13.18c-.84.82-2,1.32-3.28,1.31-.08,0-.15,0-.23,0,.95-.37,1.75-1.06,2.29-1.94.43.15.84.36,1.22.64Z"/>
      <path class="cls-1" d="m4.76,10.66c-.08.46-.22.9-.43,1.31-1-.26-2.05-.2-2.99.2.05-.05.1-.11.16-.16.91-.9,2.09-1.35,3.27-1.35Z"/>
      <path class="cls-1" d="m6.97,11.23c-.18.6-.47,1.14-.86,1.6-.41-.31-.85-.55-1.3-.72.21-.44.36-.92.44-1.43.6.06,1.19.24,1.73.55Z"/>
      <path class="cls-1" d="m6.76,14.18c.27.38.48.8.61,1.23-.88.52-1.58,1.31-1.96,2.25,0-.07,0-.15,0-.22.01-1.27.52-2.42,1.35-3.25Z"/>
      <path class="cls-1" d="m8.51,12.66c-.6.2-1.15.51-1.63.91-.08-.09-.16-.18-.24-.26-.06-.07-.13-.13-.2-.19.4-.48.71-1.04.9-1.65.22.16.43.33.62.53l.02.02c.2.2.37.42.52.65Z"/>
      <path class="cls-1" d="m9.23,14.76c-.51.06-.99.21-1.43.41-.16-.46-.39-.91-.69-1.31.47-.38,1.01-.68,1.61-.84.29.55.46,1.14.51,1.74Z"/>
      <path class="cls-1" d="m7.5,15.9c.22,1.1.03,2.27-.57,3.28,0,0,0,0,0,0-.32.18-.65.33-.99.43-.17-.32-.29-.66-.38-1.02.3-1.13,1.01-2.08,1.95-2.69Z"/>
      <path class="cls-1" d="m9.25,15.24c-.03,1.17-.49,2.34-1.4,3.23-.05.05-.11.11-.17.16.42-.93.5-1.98.26-2.98.4-.2.84-.34,1.31-.41Z"/>
      <path class="cls-1" d="m1.33,14.34c-.36-.1-.7-.23-1.02-.4.11-.34.26-.68.45-1h0c1.02-.6,2.21-.78,3.32-.53-.62.95-1.6,1.65-2.75,1.94Z"/>
      <path class="cls-1" d="m5.79,13.18c-.84.82-2,1.32-3.28,1.31-.08,0-.15,0-.23,0,.95-.37,1.75-1.06,2.29-1.94.43.15.84.36,1.22.64Z"/>
      <path class="cls-1" d="m7.37,15.4c-.88.52-1.58,1.31-1.96,2.25,0-.07,0-.15,0-.22.01-1.27.52-2.42,1.35-3.25.27.38.48.8.61,1.23Z"/>
      <path class="cls-1" d="m7.5,15.9c.22,1.1.03,2.27-.57,3.28,0,0,0,0,0,0-.32.18-.65.33-.99.43-.17-.32-.29-.66-.38-1.02.3-1.13,1.01-2.08,1.95-2.69Z"/>
      <path class="cls-1" d="m1.33,14.34c-.36-.1-.7-.23-1.02-.4.11-.34.26-.68.45-1h0c1.02-.6,2.21-.78,3.32-.53-.62.95-1.6,1.65-2.75,1.94Z"/>
      <path class="cls-1" d="m5.79,13.18c-.84.82-2,1.32-3.28,1.31-.08,0-.15,0-.23,0,.95-.37,1.75-1.06,2.29-1.94.43.15.84.36,1.22.64Z"/>
      <path class="cls-1" d="m7.37,15.4c-.88.52-1.58,1.31-1.96,2.25,0-.07,0-.15,0-.22.01-1.27.52-2.42,1.35-3.25.27.38.48.8.61,1.23Z"/>
      <path class="cls-1" d="m6.92,19.17s0,0,0,0c-.32.18-.65.33-.99.43-.17-.32-.29-.66-.38-1.02.3-1.13,1.01-2.08,1.95-2.69.22,1.1.03,2.27-.57,3.28Z"/>
      <path class="cls-1" d="m7.5,15.9c.22,1.1.03,2.27-.57,3.28,0,0,0,0,0,0-.32.18-.65.33-.99.43-.17-.32-.29-.66-.38-1.02.3-1.13,1.01-2.08,1.95-2.69Z"/>
      <path class="cls-1" d="m7.94,15.64c.4-.2.84-.34,1.31-.41-.03,1.17-.49,2.34-1.4,3.23-.05.05-.11.11-.17.16.42-.93.5-1.98.26-2.98Z"/>
      <path class="cls-1" d="m12.17,18.66c-.05-.05-.11-.1-.16-.16-.89-.91-1.34-2.09-1.35-3.26.46.08.9.23,1.3.43-.26,1-.19,2.05.2,2.98Z"/>
      <path class="cls-1" d="m14.31,18.68c-.09.35-.23.69-.39,1-.34-.11-.67-.26-.98-.44h0c-.59-1.02-.77-2.2-.53-3.3.94.63,1.63,1.6,1.91,2.74Z"/>
      <path class="cls-1" d="m6.76,14.18c.27.38.48.8.61,1.23-.88.52-1.58,1.31-1.96,2.25,0-.07,0-.15,0-.22.01-1.27.52-2.42,1.35-3.25Z"/>
      <path class="cls-1" d="m8.72,13.02c.29.55.46,1.14.51,1.74-.51.06-.99.21-1.43.41-.16-.46-.39-.91-.69-1.31.47-.38,1.01-.68,1.61-.84Z"/>
      <path class="cls-1" d="m10.83,12.94c-.29.56-.46,1.17-.51,1.79-.12,0-.24-.02-.36-.02-.09,0-.18,0-.27,0-.06-.62-.23-1.23-.53-1.79.25-.05.51-.07.78-.07h.06c.29,0,.57.03.83.09Z"/>
      <path class="cls-1" d="m12.82,13.91c-.31.41-.55.85-.72,1.3-.44-.21-.92-.37-1.42-.44.06-.6.24-1.19.54-1.73.59.18,1.13.47,1.6.87Z"/>
      <path class="cls-1" d="m14.47,17.51c0,.08,0,.15,0,.23-.36-.94-1.04-1.74-1.92-2.29.14-.43.35-.84.63-1.22.81.84,1.31,2,1.3,3.28Z"/>
      <path class="cls-1" d="m7.5,15.9c.22,1.1.03,2.27-.57,3.28,0,0,0,0,0,0-.32.18-.65.33-.99.43-.17-.32-.29-.66-.38-1.02.3-1.13,1.01-2.08,1.95-2.69Z"/>
      <path class="cls-1" d="m7.94,15.64c.4-.2.84-.34,1.31-.41-.03,1.17-.49,2.34-1.4,3.23-.05.05-.11.11-.17.16.42-.93.5-1.98.26-2.98Z"/>
      <path class="cls-1" d="m12.17,18.66c-.05-.05-.11-.1-.16-.16-.89-.91-1.34-2.09-1.35-3.26.46.08.9.23,1.3.43-.26,1-.19,2.05.2,2.98Z"/>
      <path class="cls-1" d="m14.31,18.68c-.09.35-.23.69-.39,1-.34-.11-.67-.26-.98-.44h0c-.59-1.02-.77-2.2-.53-3.3.94.63,1.63,1.6,1.91,2.74Z"/>
      <path class="cls-1" d="m6.92,19.17s0,0,0,0c-.32.18-.65.33-.99.43-.17-.32-.29-.66-.38-1.02.3-1.13,1.01-2.08,1.95-2.69.22,1.1.03,2.27-.57,3.28Z"/>
      <path class="cls-1" d="m9.25,15.24c-.03,1.17-.49,2.34-1.4,3.23-.05.05-.11.11-.17.16.42-.93.5-1.98.26-2.98.4-.2.84-.34,1.31-.41Z"/>
      <path class="cls-1" d="m12.17,18.66c-.05-.05-.11-.1-.16-.16-.89-.91-1.34-2.09-1.35-3.26.46.08.9.23,1.3.43-.26,1-.19,2.05.2,2.98Z"/>
      <path class="cls-1" d="m14.31,18.68c-.09.35-.23.69-.39,1-.34-.11-.67-.26-.98-.44h0c-.59-1.02-.77-2.2-.53-3.3.94.63,1.63,1.6,1.91,2.74Z"/>
      <path class="cls-1" d="m12.17,18.66c-.05-.05-.11-.1-.16-.16-.89-.91-1.34-2.09-1.35-3.26.46.08.9.23,1.3.43-.26,1-.19,2.05.2,2.98Z"/>
      <path class="cls-1" d="m14.31,18.68c-.09.35-.23.69-.39,1-.34-.11-.67-.26-.98-.44h0c-.59-1.02-.77-2.2-.53-3.3.94.63,1.63,1.6,1.91,2.74Z"/>
      <path class="cls-1" d="m11.23,13.04c.59.18,1.13.47,1.6.87-.31.41-.55.85-.72,1.3-.44-.21-.92-.37-1.42-.44.06-.6.24-1.19.54-1.73Z"/>
      <path class="cls-1" d="m13.57,13.12c-.09.08-.18.16-.26.24-.07.06-.13.13-.18.2-.48-.4-1.04-.71-1.65-.9.15-.22.33-.43.52-.62l.02-.02c.21-.2.42-.37.65-.52.19.6.5,1.15.9,1.63Z"/>
      <path class="cls-1" d="m15.17,12.19c-.46.16-.91.39-1.32.7-.38-.47-.67-1.01-.84-1.61.55-.29,1.14-.46,1.74-.51.07.5.21.98.42,1.42Z"/>
      <path class="cls-1" d="m18.62,12.31c-.93-.41-1.98-.49-2.97-.26-.2-.4-.34-.84-.41-1.3,1.17.03,2.34.49,3.23,1.4.05.05.1.11.15.16Z"/>
      <path class="cls-1" d="m14.47,17.51c0,.08,0,.15,0,.23-.36-.94-1.04-1.74-1.92-2.29.14-.43.35-.84.63-1.22.81.84,1.31,2,1.3,3.28Z"/>
      <path class="cls-1" d="m17.66,14.59c-.07,0-.15,0-.22,0-1.28-.01-2.43-.53-3.25-1.35.38-.27.79-.47,1.22-.61.52.88,1.31,1.58,2.25,1.96Z"/>
      <path class="cls-1" d="m19.61,14.08c-.32.16-.66.29-1.02.38-1.13-.3-2.09-1.01-2.7-1.95,1.1-.22,2.28-.03,3.28.58.18.31.33.65.43.99Z"/>
      <path class="cls-1" d="m14.31,18.68c-.09.35-.23.69-.39,1-.34-.11-.67-.26-.98-.44h0c-.59-1.02-.77-2.2-.53-3.3.94.63,1.63,1.6,1.91,2.74Z"/>
      <path class="cls-1" d="m14.47,17.51c0,.08,0,.15,0,.23-.36-.94-1.04-1.74-1.92-2.29.14-.43.35-.84.63-1.22.81.84,1.31,2,1.3,3.28Z"/>
      <path class="cls-1" d="m17.66,14.59c-.07,0-.15,0-.22,0-1.28-.01-2.43-.53-3.25-1.35.38-.27.79-.47,1.22-.61.52.88,1.31,1.58,2.25,1.96Z"/>
      <path class="cls-1" d="m19.61,14.08c-.32.16-.66.29-1.02.38-1.13-.3-2.09-1.01-2.7-1.95,1.1-.22,2.28-.03,3.28.58.18.31.33.65.43.99Z"/>
      <path class="cls-1" d="m14.31,18.68c-.09.35-.23.69-.39,1-.34-.11-.67-.26-.98-.44h0c-.59-1.02-.77-2.2-.53-3.3.94.63,1.63,1.6,1.91,2.74Z"/>
      <path class="cls-1" d="m14.47,17.51c0,.08,0,.15,0,.23-.36-.94-1.04-1.74-1.92-2.29.14-.43.35-.84.63-1.22.81.84,1.31,2,1.3,3.28Z"/>
      <path class="cls-1" d="m17.66,14.59c-.07,0-.15,0-.22,0-1.28-.01-2.43-.53-3.25-1.35.38-.27.79-.47,1.22-.61.52.88,1.31,1.58,2.25,1.96Z"/>
      <path class="cls-1" d="m19.61,14.08c-.32.16-.66.29-1.02.38-1.13-.3-2.09-1.01-2.7-1.95,1.1-.22,2.28-.03,3.28.58.18.31.33.65.43.99Z"/>
      <path class="cls-1" d="m15.45,7.46c-.43-.14-.84-.35-1.22-.63.84-.81,2-1.31,3.28-1.3.08,0,.15,0,.23,0-.95.36-1.75,1.04-2.29,1.92Z"/>
      <path class="cls-1" d="m19.68,6.08c-.11.34-.26.67-.45.99-1.01.59-2.19.77-3.29.53.63-.94,1.6-1.63,2.74-1.9.35.09.69.22,1,.39Z"/>
      <path class="cls-1" d="m14.72,10.31c-.62.06-1.23.23-1.8.53-.05-.25-.07-.51-.07-.78v-.06c0-.29.03-.56.09-.83.56.29,1.17.46,1.79.51-.01.12-.02.24-.02.36,0,.09,0,.18,0,.27Z"/>
      <path class="cls-1" d="m15.17,12.19c-.46.16-.91.39-1.32.7-.38-.47-.67-1.01-.84-1.61.55-.29,1.14-.46,1.74-.51.07.5.21.98.42,1.42Z"/>
      <path class="cls-1" d="m14.77,9.31c-.6-.06-1.2-.24-1.73-.54.18-.59.47-1.13.87-1.59.41.31.85.55,1.3.72-.21.44-.36.91-.44,1.42Z"/>
      <path class="cls-1" d="m18.47,12.15c.05.05.1.11.15.16-.93-.41-1.98-.49-2.97-.26-.2-.4-.34-.84-.41-1.3,1.17.03,2.34.49,3.23,1.4Z"/>
      <path class="cls-1" d="m18.65,7.83c-.05.05-.1.11-.15.16-.91.89-2.09,1.34-3.26,1.35.08-.46.23-.9.44-1.3.99.26,2.04.19,2.97-.21Z"/>
      <path class="cls-1" d="m17.66,14.59c-.07,0-.15,0-.22,0-1.28-.01-2.43-.53-3.25-1.35.38-.27.79-.47,1.22-.61.52.88,1.31,1.58,2.25,1.96Z"/>
      <path class="cls-1" d="m19.61,14.08c-.32.16-.66.29-1.02.38-1.13-.3-2.09-1.01-2.7-1.95,1.1-.22,2.28-.03,3.28.58.18.31.33.65.43.99Z"/>
      <path class="cls-1" d="m19.68,6.08c-.11.34-.26.67-.45.99-1.01.59-2.19.77-3.29.53.63-.94,1.6-1.63,2.74-1.9.35.09.69.22,1,.39Z"/>
      <path class="cls-1" d="m18.47,12.15c.05.05.1.11.15.16-.93-.41-1.98-.49-2.97-.26-.2-.4-.34-.84-.41-1.3,1.17.03,2.34.49,3.23,1.4Z"/>
      <path class="cls-1" d="m18.65,7.83c-.05.05-.1.11-.15.16-.91.89-2.09,1.34-3.26,1.35.08-.46.23-.9.44-1.3.99.26,2.04.19,2.97-.21Z"/>
      <path class="cls-1" d="m19.61,14.08c-.32.16-.66.29-1.02.38-1.13-.3-2.09-1.01-2.7-1.95,1.1-.22,2.28-.03,3.28.58.18.31.33.65.43.99Z"/>
      <path class="cls-1" d="m18.65,7.83c-.05.05-.1.11-.15.16-.91.89-2.09,1.34-3.26,1.35.08-.46.23-.9.44-1.3.99.26,2.04.19,2.97-.21Z"/>
      <path class="cls-1" d="m19.68,6.08c-.11.34-.26.67-.45.99-1.01.59-2.19.77-3.29.53.63-.94,1.6-1.63,2.74-1.9.35.09.69.22,1,.39Z"/>
      <path class="cls-1" d="m18.62,12.31c-.93-.41-1.98-.49-2.97-.26-.2-.4-.34-.84-.41-1.3,1.17.03,2.34.49,3.23,1.4.05.05.1.11.15.16Z"/>
      <path class="cls-1" d="m19.61,14.08c-.32.16-.66.29-1.02.38-1.13-.3-2.09-1.01-2.7-1.95,1.1-.22,2.28-.03,3.28.58.18.31.33.65.43.99Z"/>
      <path class="cls-1" d="m12.49,4.06c-.2-1.09,0-2.25.6-3.24.3-.18.61-.31.94-.42.16.3.28.62.36.96-.29,1.12-.97,2.08-1.89,2.7Z"/>
      <path class="cls-1" d="m12.05,4.32c-.4.21-.84.36-1.3.44.03-1.17.49-2.33,1.4-3.23.05-.05.11-.11.17-.16-.41.92-.5,1.95-.27,2.95Z"/>
      <path class="cls-1" d="m13.21,5.79c-.26-.38-.47-.8-.6-1.23.86-.53,1.54-1.32,1.91-2.25,0,.08,0,.15,0,.22,0,1.27-.5,2.42-1.32,3.26Z"/>
      <path class="cls-1" d="m12.86,6.11c-.46.39-1,.68-1.59.86-.29-.54-.46-1.14-.5-1.74.5-.08.98-.23,1.42-.44.16.46.38.91.68,1.32Z"/>
      <path class="cls-1" d="m13.55,6.89c-.4.48-.71,1.04-.9,1.64-.22-.16-.43-.33-.62-.53l-.02-.02c-.2-.2-.37-.42-.52-.65.6-.2,1.15-.5,1.63-.9.08.09.16.18.24.26.06.07.13.13.2.19Z"/>
      <path class="cls-1" d="m15.21,7.89c-.21.44-.36.91-.44,1.42-.6-.06-1.2-.24-1.73-.54.18-.59.47-1.13.87-1.59.41.31.85.55,1.3.72Z"/>
      <path class="cls-1" d="m18.65,7.83c-.05.05-.1.11-.15.16-.91.89-2.09,1.34-3.26,1.35.08-.46.23-.9.44-1.3.99.26,2.04.19,2.97-.21Z"/>
      <path class="cls-1" d="m15.45,7.46c-.43-.14-.84-.35-1.22-.63.84-.81,2-1.31,3.28-1.3.08,0,.15,0,.23,0-.95.36-1.75,1.04-2.29,1.92Z"/>
      <path class="cls-1" d="m19.68,6.08c-.11.34-.26.67-.45.99-1.01.59-2.19.77-3.29.53.63-.94,1.6-1.63,2.74-1.9.35.09.69.22,1,.39Z"/>
      <path class="cls-1" d="m12.49,4.06c-.2-1.09,0-2.25.6-3.24.3-.18.61-.31.94-.42.16.3.28.62.36.96-.29,1.12-.97,2.08-1.89,2.7Z"/>
      <path class="cls-1" d="m14.53,2.53c0,1.27-.5,2.42-1.32,3.26-.26-.38-.47-.8-.6-1.23.86-.53,1.54-1.32,1.91-2.25,0,.08,0,.15,0,.22Z"/>
      <path class="cls-1" d="m15.45,7.46c-.43-.14-.84-.35-1.22-.63.84-.81,2-1.31,3.28-1.3.08,0,.15,0,.23,0-.95.36-1.75,1.04-2.29,1.92Z"/>
      <path class="cls-1" d="m19.68,6.08c-.11.34-.26.67-.45.99-1.01.59-2.19.77-3.29.53.63-.94,1.6-1.63,2.74-1.9.35.09.69.22,1,.39Z"/>
      <path class="cls-1" d="m14.38,1.36c-.29,1.12-.97,2.08-1.89,2.7-.2-1.09,0-2.25.6-3.24.3-.18.61-.31.94-.42.16.3.28.62.36.96Z"/>
      <path class="cls-1" d="m14.53,2.53c0,1.27-.5,2.42-1.32,3.26-.26-.38-.47-.8-.6-1.23.86-.53,1.54-1.32,1.91-2.25,0,.08,0,.15,0,.22Z"/>
      <path class="cls-1" d="m15.45,7.46c-.43-.14-.84-.35-1.22-.63.84-.81,2-1.31,3.28-1.3.08,0,.15,0,.23,0-.95.36-1.75,1.04-2.29,1.92Z"/>
      <path class="cls-1" d="m19.68,6.08c-.11.34-.26.67-.45.99-1.01.59-2.19.77-3.29.53.63-.94,1.6-1.63,2.74-1.9.35.09.69.22,1,.39Z"/>
      <path class="cls-1" d="m.79,7h0c-.19-.33-.34-.67-.45-1.02.33-.18.68-.31,1.05-.4,1.14.3,2.11,1.02,2.72,1.98-1.11.24-2.3.05-3.32-.55Z"/>
      <path class="cls-1" d="m4.37,7.99c.2.41.34.85.4,1.31-1.17,0-2.35-.47-3.25-1.37-.05-.05-.11-.11-.16-.17.94.41,2,.48,3.01.23Z"/>
      <path class="cls-1" d="m2.32,5.44c.08,0,.16,0,.23,0,1.27,0,2.43.52,3.27,1.34-.38.28-.79.49-1.22.64-.52-.89-1.33-1.59-2.28-1.98Z"/>
      <path class="cls-1" d="m6.98,8.75c-.55.3-1.14.48-1.74.54-.07-.51-.21-.99-.42-1.43.46-.17.9-.41,1.31-.72.39.47.68,1.01.85,1.61Z"/>
      <path class="cls-1" d="m8.52,7.34c-.15.23-.33.44-.53.64h0c-.2.21-.42.39-.65.54-.19-.6-.5-1.16-.9-1.64.08-.07.15-.14.23-.21s.15-.15.22-.23c.48.4,1.03.71,1.64.9Z"/>
      <path class="cls-1" d="m7.41,4.57c-.13.43-.34.84-.62,1.22-.82-.83-1.33-1.99-1.33-3.26,0-.08,0-.16,0-.23.37.95,1.06,1.74,1.94,2.28Z"/>
      <path class="cls-1" d="m7.54,4.08c-.94-.62-1.64-1.59-1.93-2.72.09-.35.22-.68.39-1,.34.1.67.25.98.44,0,0,0,0,0,0,.6,1.01.78,2.18.56,3.28Z"/>
      <path class="cls-1" d="m7.85,4.8c.44.21.92.36,1.42.43-.05.6-.23,1.2-.52,1.74-.59-.17-1.14-.47-1.6-.86.31-.41.54-.86.7-1.31Z"/>
      <path class="cls-1" d="m7.75,1.36c.05.05.11.1.16.16.9.9,1.36,2.08,1.38,3.24-.46-.07-.9-.22-1.3-.42.24-1,.17-2.05-.24-2.97Z"/>
      <path class="cls-1" d="m.79,7h0c-.19-.33-.34-.67-.45-1.02.33-.18.68-.31,1.05-.4,1.14.3,2.11,1.02,2.72,1.98-1.11.24-2.3.05-3.32-.55Z"/>
      <path class="cls-1" d="m4.37,7.99c.2.41.34.85.4,1.31-1.17,0-2.35-.47-3.25-1.37-.05-.05-.11-.11-.16-.17.94.41,2,.48,3.01.23Z"/>
      <path class="cls-1" d="m2.32,5.44c.08,0,.16,0,.23,0,1.27,0,2.43.52,3.27,1.34-.38.28-.79.49-1.22.64-.52-.89-1.33-1.59-2.28-1.98Z"/>
      <path class="cls-1" d="m6.98,8.75c-.55.3-1.14.48-1.74.54-.07-.51-.21-.99-.42-1.43.46-.17.9-.41,1.31-.72.39.47.68,1.01.85,1.61Z"/>
      <path class="cls-1" d="m1.33,14.34c-.36-.1-.7-.23-1.02-.4.11-.34.26-.68.45-1h0c1.02-.6,2.21-.78,3.32-.53-.62.95-1.6,1.65-2.75,1.94Z"/>
      <path class="cls-1" d="m5.79,13.18c-.84.82-2,1.32-3.28,1.31-.08,0-.15,0-.23,0,.95-.37,1.75-1.06,2.29-1.94.43.15.84.36,1.22.64Z"/>
      <path class="cls-1" d="m4.76,10.66c-.08.46-.22.9-.43,1.31-1-.26-2.05-.2-2.99.2.05-.05.1-.11.16-.16.91-.9,2.09-1.35,3.27-1.35Z"/>
      <path class="cls-1" d="m5.24,10.69c.6.06,1.19.24,1.73.55-.18.6-.47,1.14-.86,1.6-.41-.31-.85-.55-1.3-.72.21-.44.36-.92.44-1.43Z"/>
      <path class="cls-1" d="m7.15,9.97v.03c0,.29-.03.57-.08.83-.57-.29-1.17-.46-1.79-.52,0-.11.01-.23.01-.34,0-.1,0-.19,0-.29.62-.06,1.23-.23,1.79-.53.05.26.08.53.08.8Z"/>
      <path class="cls-1" d="m.79,7h0c-.19-.33-.34-.67-.45-1.02.33-.18.68-.31,1.05-.4,1.14.3,2.11,1.02,2.72,1.98-1.11.24-2.3.05-3.32-.55Z"/>
      <path class="cls-1" d="m4.37,7.99c.2.41.34.85.4,1.31-1.17,0-2.35-.47-3.25-1.37-.05-.05-.11-.11-.16-.17.94.41,2,.48,3.01.23Z"/>
      <path class="cls-1" d="m2.32,5.44c.08,0,.16,0,.23,0,1.27,0,2.43.52,3.27,1.34-.38.28-.79.49-1.22.64-.52-.89-1.33-1.59-2.28-1.98Z"/>
      <path class="cls-1" d="m6.98,8.75c-.55.3-1.14.48-1.74.54-.07-.51-.21-.99-.42-1.43.46-.17.9-.41,1.31-.72.39.47.68,1.01.85,1.61Z"/>
      <path class="cls-1" d="m8.52,7.34c-.15.23-.33.44-.53.64h0c-.2.21-.42.39-.65.54-.19-.6-.5-1.16-.9-1.64.08-.07.15-.14.23-.21s.15-.15.22-.23c.48.4,1.03.71,1.64.9Z"/>
      <path class="cls-1" d="m7.41,4.57c-.13.43-.34.84-.62,1.22-.82-.83-1.33-1.99-1.33-3.26,0-.08,0-.16,0-.23.37.95,1.06,1.74,1.94,2.28Z"/>
      <path class="cls-1" d="m7.54,4.08c-.94-.62-1.64-1.59-1.93-2.72.09-.35.22-.68.39-1,.34.1.67.25.98.44,0,0,0,0,0,0,.6,1.01.78,2.18.56,3.28Z"/>
      <path class="cls-1" d="m7.85,4.8c.44.21.92.36,1.42.43-.05.6-.23,1.2-.52,1.74-.59-.17-1.14-.47-1.6-.86.31-.41.54-.86.7-1.31Z"/>
      <path class="cls-1" d="m7.75,1.36c.05.05.11.1.16.16.9.9,1.36,2.08,1.38,3.24-.46-.07-.9-.22-1.3-.42.24-1,.17-2.05-.24-2.97Z"/>
      <path class="cls-1" d="m10.83,7.07c-.27.05-.55.08-.83.08s-.56-.03-.83-.08c.29-.56.46-1.17.52-1.79.1,0,.21,0,.32,0s.21,0,.31,0c.06.62.23,1.23.52,1.79Z"/>
      <path class="cls-1" d="m7.85,4.8c-.16.46-.39.9-.7,1.31.46.39,1.01.68,1.6.86.3-.54.47-1.13.52-1.74-.5-.07-.99-.22-1.42-.43Zm1.44-.04c-.02-1.17-.48-2.34-1.38-3.24-.05-.05-.11-.1-.16-.16.41.93.48,1.98.24,2.97.4.21.84.35,1.3.42Zm-3.82-2.47c0,.08,0,.16,0,.23,0,1.27.51,2.43,1.33,3.26.27-.38.48-.79.62-1.22-.88-.53-1.57-1.33-1.94-2.28Zm1.51-1.49s0,0,0,0c-.31-.18-.64-.33-.98-.44-.17.31-.3.65-.39,1,.29,1.14.99,2.1,1.93,2.72.22-1.1.04-2.27-.56-3.28Zm5.33.57c-.06.05-.12.1-.17.16-.91.89-1.38,2.06-1.4,3.23.46-.08.9-.23,1.3-.44-.23-.99-.14-2.03.27-2.95Zm2.2.94c-.37.93-1.04,1.72-1.91,2.25.13.44.33.85.6,1.23.81-.83,1.32-1.98,1.32-3.26,0-.08,0-.15,0-.22Zm-2.34,2.48c-.44.21-.91.36-1.42.44.05.6.21,1.2.5,1.74.59-.18,1.13-.47,1.59-.86-.3-.41-.52-.86-.68-1.32ZM14.02.4c-.32.1-.64.24-.94.42-.6.99-.8,2.15-.6,3.24.92-.62,1.61-1.57,1.89-2.7-.08-.34-.21-.66-.36-.96Z"/>
      <path class="cls-1" d="m12.49,4.06c-.2-1.09,0-2.25.6-3.24.3-.18.61-.31.94-.42.16.3.28.62.36.96-.29,1.12-.97,2.08-1.89,2.7Z"/>
      <path class="cls-1" d="m12.05,4.32c-.4.21-.84.36-1.3.44.03-1.17.49-2.33,1.4-3.23.05-.05.11-.11.17-.16-.41.92-.5,1.95-.27,2.95Z"/>
      <path class="cls-1" d="m13.21,5.79c-.26-.38-.47-.8-.6-1.23.86-.53,1.54-1.32,1.91-2.25,0,.08,0,.15,0,.22,0,1.27-.5,2.42-1.32,3.26Z"/>
      <path class="cls-1" d="m11.27,6.97c-.29-.54-.46-1.14-.5-1.74.5-.08.98-.23,1.42-.44.16.46.38.91.68,1.32-.46.39-1,.68-1.59.86Z"/>
      <path class="cls-1" d="m13.55,6.89c-.4.48-.71,1.04-.9,1.64-.22-.16-.43-.33-.62-.53l-.02-.02c-.2-.2-.37-.42-.52-.65.6-.2,1.15-.5,1.63-.9.08.09.16.18.24.26.06.07.13.13.2.19Z"/>
      <path class="cls-1" d="m15.21,7.89c-.21.44-.36.91-.44,1.42-.6-.06-1.2-.24-1.73-.54.18-.59.47-1.13.87-1.59.41.31.85.55,1.3.72Z"/>
      <path class="cls-1" d="m18.65,7.83c-.05.05-.1.11-.15.16-.91.89-2.09,1.34-3.26,1.35.08-.46.23-.9.44-1.3.99.26,2.04.19,2.97-.21Z"/>
      <path class="cls-1" d="m15.45,7.46c-.43-.14-.84-.35-1.22-.63.84-.81,2-1.31,3.28-1.3.08,0,.15,0,.23,0-.95.36-1.75,1.04-2.29,1.92Z"/>
      <path class="cls-1" d="m19.68,6.08c-.11.34-.26.67-.45.99-1.01.59-2.19.77-3.29.53.63-.94,1.6-1.63,2.74-1.9.35.09.69.22,1,.39Z"/>
      <path class="cls-1" d="m15.45,7.46c-.43-.14-.84-.35-1.22-.63.84-.81,2-1.31,3.28-1.3.08,0,.15,0,.23,0-.95.36-1.75,1.04-2.29,1.92Z"/>
      <path class="cls-1" d="m19.68,6.08c-.11.34-.26.67-.45.99-1.01.59-2.19.77-3.29.53.63-.94,1.6-1.63,2.74-1.9.35.09.69.22,1,.39Z"/>
      <path class="cls-1" d="m14.72,10.31c-.62.06-1.23.23-1.8.53-.05-.25-.07-.51-.07-.78v-.06c0-.29.03-.56.09-.83.56.29,1.17.46,1.79.51-.01.12-.02.24-.02.36,0,.09,0,.18,0,.27Z"/>
      <path class="cls-1" d="m15.17,12.19c-.46.16-.91.39-1.32.7-.38-.47-.67-1.01-.84-1.61.55-.29,1.14-.46,1.74-.51.07.5.21.98.42,1.42Z"/>
      <path class="cls-1" d="m14.77,9.31c-.6-.06-1.2-.24-1.73-.54.18-.59.47-1.13.87-1.59.41.31.85.55,1.3.72-.21.44-.36.91-.44,1.42Z"/>
      <path class="cls-1" d="m18.47,12.15c.05.05.1.11.15.16-.93-.41-1.98-.49-2.97-.26-.2-.4-.34-.84-.41-1.3,1.17.03,2.34.49,3.23,1.4Z"/>
      <path class="cls-1" d="m18.65,7.83c-.05.05-.1.11-.15.16-.91.89-2.09,1.34-3.26,1.35.08-.46.23-.9.44-1.3.99.26,2.04.19,2.97-.21Z"/>
      <path class="cls-1" d="m17.66,14.59c-.07,0-.15,0-.22,0-1.28-.01-2.43-.53-3.25-1.35.38-.27.79-.47,1.22-.61.52.88,1.31,1.58,2.25,1.96Z"/>
      <path class="cls-1" d="m19.61,14.08c-.32.16-.66.29-1.02.38-1.13-.3-2.09-1.01-2.7-1.95,1.1-.22,2.28-.03,3.28.58.18.31.33.65.43.99Z"/>
      <path class="cls-1" d="m12.17,18.66c-.05-.05-.11-.1-.16-.16-.89-.91-1.34-2.09-1.35-3.26.46.08.9.23,1.3.43-.26,1-.19,2.05.2,2.98Z"/>
      <path class="cls-1" d="m14.31,18.68c-.09.35-.23.69-.39,1-.34-.11-.67-.26-.98-.44h0c-.59-1.02-.77-2.2-.53-3.3.94.63,1.63,1.6,1.91,2.74Z"/>
      <path class="cls-1" d="m11.23,13.04c.59.18,1.13.47,1.6.87-.31.41-.55.85-.72,1.3-.44-.21-.92-.37-1.42-.44.06-.6.24-1.19.54-1.73Z"/>
      <path class="cls-1" d="m13.57,13.12c-.09.08-.18.16-.26.24-.07.06-.13.13-.18.2-.48-.4-1.04-.71-1.65-.9.15-.22.33-.43.52-.62l.02-.02c.21-.2.42-.37.65-.52.19.6.5,1.15.9,1.63Z"/>
      <path class="cls-1" d="m15.17,12.19c-.46.16-.91.39-1.32.7-.38-.47-.67-1.01-.84-1.61.55-.29,1.14-.46,1.74-.51.07.5.21.98.42,1.42Z"/>
      <path class="cls-1" d="m18.62,12.31c-.93-.41-1.98-.49-2.97-.26-.2-.4-.34-.84-.41-1.3,1.17.03,2.34.49,3.23,1.4.05.05.1.11.15.16Z"/>
      <path class="cls-1" d="m14.47,17.51c0,.08,0,.15,0,.23-.36-.94-1.04-1.74-1.92-2.29.14-.43.35-.84.63-1.22.81.84,1.31,2,1.3,3.28Z"/>
      <path class="cls-1" d="m17.66,14.59c-.07,0-.15,0-.22,0-1.28-.01-2.43-.53-3.25-1.35.38-.27.79-.47,1.22-.61.52.88,1.31,1.58,2.25,1.96Z"/>
      <path class="cls-1" d="m19.61,14.08c-.32.16-.66.29-1.02.38-1.13-.3-2.09-1.01-2.7-1.95,1.1-.22,2.28-.03,3.28.58.18.31.33.65.43.99Z"/>
      <path class="cls-1" d="m7.5,15.9c.22,1.1.03,2.27-.57,3.28,0,0,0,0,0,0-.32.18-.65.33-.99.43-.17-.32-.29-.66-.38-1.02.3-1.13,1.01-2.08,1.95-2.69Z"/>
      <path class="cls-1" d="m7.94,15.64c.4-.2.84-.34,1.31-.41-.03,1.17-.49,2.34-1.4,3.23-.05.05-.11.11-.17.16.42-.93.5-1.98.26-2.98Z"/>
      <path class="cls-1" d="m12.17,18.66c-.05-.05-.11-.1-.16-.16-.89-.91-1.34-2.09-1.35-3.26.46.08.9.23,1.3.43-.26,1-.19,2.05.2,2.98Z"/>
      <path class="cls-1" d="m14.31,18.68c-.09.35-.23.69-.39,1-.34-.11-.67-.26-.98-.44h0c-.59-1.02-.77-2.2-.53-3.3.94.63,1.63,1.6,1.91,2.74Z"/>
      <path class="cls-1" d="m6.76,14.18c.27.38.48.8.61,1.23-.88.52-1.58,1.31-1.96,2.25,0-.07,0-.15,0-.22.01-1.27.52-2.42,1.35-3.25Z"/>
      <path class="cls-1" d="m8.72,13.02c.29.55.46,1.14.51,1.74-.51.06-.99.21-1.43.41-.16-.46-.39-.91-.69-1.31.47-.38,1.01-.68,1.61-.84Z"/>
      <path class="cls-1" d="m10.83,12.94c-.29.56-.46,1.17-.51,1.79-.12,0-.24-.02-.36-.02-.09,0-.18,0-.27,0-.06-.62-.23-1.23-.53-1.79.25-.05.51-.07.78-.07h.06c.29,0,.57.03.83.09Z"/>
      <path class="cls-1" d="m12.82,13.91c-.31.41-.55.85-.72,1.3-.44-.21-.92-.37-1.42-.44.06-.6.24-1.19.54-1.73.59.18,1.13.47,1.6.87Z"/>
      <path class="cls-1" d="m14.47,17.51c0,.08,0,.15,0,.23-.36-.94-1.04-1.74-1.92-2.29.14-.43.35-.84.63-1.22.81.84,1.31,2,1.3,3.28Z"/>
      <path class="cls-1" d="m1.33,14.34c-.36-.1-.7-.23-1.02-.4.11-.34.26-.68.45-1h0c1.02-.6,2.21-.78,3.32-.53-.62.95-1.6,1.65-2.75,1.94Z"/>
      <path class="cls-1" d="m5.79,13.18c-.84.82-2,1.32-3.28,1.31-.08,0-.15,0-.23,0,.95-.37,1.75-1.06,2.29-1.94.43.15.84.36,1.22.64Z"/>
      <path class="cls-1" d="m4.76,10.66c-.08.46-.22.9-.43,1.31-1-.26-2.05-.2-2.99.2.05-.05.1-.11.16-.16.91-.9,2.09-1.35,3.27-1.35Z"/>
      <path class="cls-1" d="m6.97,11.23c-.18.6-.47,1.14-.86,1.6-.41-.31-.85-.55-1.3-.72.21-.44.36-.92.44-1.43.6.06,1.19.24,1.73.55Z"/>
      <path class="cls-1" d="m6.76,14.18c.27.38.48.8.61,1.23-.88.52-1.58,1.31-1.96,2.25,0-.07,0-.15,0-.22.01-1.27.52-2.42,1.35-3.25Z"/>
      <path class="cls-1" d="m7.99,12.01c.2.2.37.42.52.65-.6.2-1.15.51-1.63.91-.08-.09-.16-.18-.24-.26-.06-.07-.13-.13-.2-.19.4-.48.71-1.04.9-1.65.22.16.43.33.62.53l.02.02Z"/>
      <path class="cls-1" d="m9.23,14.76c-.51.06-.99.21-1.43.41-.16-.46-.39-.91-.69-1.31.47-.38,1.01-.68,1.61-.84.29.55.46,1.14.51,1.74Z"/>
      <path class="cls-1" d="m7.5,15.9c.22,1.1.03,2.27-.57,3.28,0,0,0,0,0,0-.32.18-.65.33-.99.43-.17-.32-.29-.66-.38-1.02.3-1.13,1.01-2.08,1.95-2.69Z"/>
      <path class="cls-1" d="m7.94,15.64c.4-.2.84-.34,1.31-.41-.03,1.17-.49,2.34-1.4,3.23-.05.05-.11.11-.17.16.42-.93.5-1.98.26-2.98Z"/>
      <circle class="cls-1" cx="10" cy="1.15" r="1.15"/>
      <circle class="cls-1" cx="16.26" cy="3.75" r="1.15"/>
      <circle class="cls-1" cx="18.85" cy="10" r="1.15"/>
      <circle class="cls-1" cx="16.25" cy="16.26" r="1.15"/>
      <circle class="cls-1" cx="9.99" cy="18.85" r="1.15"/>
      <circle class="cls-1" cx="3.73" cy="16.25" r="1.15"/>
      <circle class="cls-1" cx="1.15" cy="9.98" r="1.15"/>
      <circle class="cls-1" cx="3.76" cy="3.73" r="1.15"/>
    </g>
  </g>
</svg>