<?xml version="1.0" encoding="utf-8"?>
<!-- Generator: Adobe Illustrator 26.0.0, SVG Export Plug-In . SVG Version: 6.00 Build 0)  -->
<svg version="1.1" id="Calque_2_00000124127746626958674510000005027909637390967456_"
	 xmlns="http://www.w3.org/2000/svg" xmlns:xlink="http://www.w3.org/1999/xlink" x="0px" y="0px" viewBox="0 0 20 20"
	 style="enable-background:new 0 0 20 20;" xml:space="preserve">
<style type="text/css">
	.st0{fill:#93AD1A;}
	.st1{fill:#6E8513;}
	.st2{fill:#FDFDFD;}
	.st3{fill:#5E720F;}
	.st4{fill:#050505;}
	.st5{fill:#060606;}
	.st6{fill:#080808;}
	.st7{fill:#070707;}
	.st8{fill:#6B830F;}
	.st9{fill:#6C8410;}
	.st10{fill:#5D710E;}
	.st11{fill:#6D8512;}
	.st12{fill:#6D8411;}
	.st13{fill:#E7E7E7;}
</style>
<g id="Calque_1-2">
	<g>
		<path class="st0" d="M12.6,11.1c-0.3,0.2-0.6,0.4-0.8,0.7c-0.3,0.3-0.5,0.5-0.7,0.8l0,0c-0.3-0.1-0.7-0.1-1.1-0.1s-0.7,0-1.1,0.1
			c-0.2-0.3-0.4-0.6-0.7-0.8c-0.3-0.3-0.5-0.5-0.8-0.7c0.1-0.3,0.1-0.7,0.1-1.1s0-0.7-0.1-1.1C7.7,8.8,8,8.5,8.3,8.3
			C8.5,8,8.8,7.8,8.9,7.5C9.3,7.5,9.6,7.6,10,7.6s0.7,0,1.1-0.1c0.2,0.3,0.4,0.6,0.7,0.8c0.3,0.3,0.5,0.5,0.8,0.7
			c-0.1,0.3-0.1,0.7-0.1,1.1S12.5,10.7,12.6,11.1L12.6,11.1z"/>
		<path class="st1" d="M7.4,4.6C7.3,5,7.1,5.4,6.8,5.8C6,5,5.5,3.8,5.5,2.5c0-0.1,0-0.2,0-0.2C5.8,3.2,6.5,4,7.4,4.6L7.4,4.6z"/>
		<path class="st1" d="M7.5,4.1C6.6,3.5,5.9,2.5,5.6,1.4C5.7,1,5.8,0.7,6,0.4c0.3,0.1,0.7,0.2,1,0.4l0,0C7.6,1.8,7.8,3,7.5,4.1z"/>
		<path class="st1" d="M7.8,4.8C8.3,5,8.8,5.2,9.3,5.2C9.2,5.8,9,6.4,8.8,7C8.2,6.8,7.6,6.5,7.2,6.1C7.5,5.7,7.7,5.2,7.8,4.8z"/>
		<path class="st1" d="M7.8,1.4c0.1,0,0.1,0.1,0.2,0.2c0.9,0.9,1.4,2.1,1.4,3.2C8.8,4.7,8.4,4.5,8,4.3C8.2,3.3,8.2,2.3,7.8,1.4
			L7.8,1.4z"/>
		<path class="st1" d="M12.5,4.1c-0.2-1.1,0-2.2,0.6-3.2c0.3-0.2,0.6-0.3,0.9-0.4c0.2,0.3,0.3,0.6,0.4,1C14.1,2.5,13.4,3.4,12.5,4.1
			L12.5,4.1z"/>
		<path class="st1" d="M12.1,4.3c-0.4,0.2-0.8,0.4-1.3,0.4c0-1.2,0.5-2.3,1.4-3.2c0.1,0,0.1-0.1,0.2-0.2C11.9,2.3,11.8,3.3,12.1,4.3
			z"/>
		<path class="st1" d="M12.9,6.1c-0.5,0.4-1,0.7-1.6,0.9c-0.3-0.5-0.5-1.1-0.5-1.7c0.5-0.1,1-0.2,1.4-0.4
			C12.3,5.3,12.6,5.7,12.9,6.1L12.9,6.1z"/>
		<path class="st1" d="M14.5,2.5c0,1.3-0.5,2.4-1.3,3.3c-0.3-0.4-0.5-0.8-0.6-1.2c0.9-0.5,1.5-1.3,1.9-2.2
			C14.5,2.4,14.5,2.5,14.5,2.5L14.5,2.5z"/>
		<path class="st1" d="M7.5,4.1C6.6,3.5,5.9,2.5,5.6,1.4C5.7,1,5.8,0.7,6,0.4c0.3,0.1,0.7,0.2,1,0.4l0,0C7.6,1.8,7.8,3,7.5,4.1z"/>
		<path class="st1" d="M8,4.3c0.2-1,0.2-2-0.2-3c0.1,0,0.1,0.1,0.2,0.2c0.9,0.9,1.4,2.1,1.4,3.2C8.8,4.7,8.4,4.6,8,4.3L8,4.3z"/>
		<path class="st1" d="M12.1,4.3c-0.4,0.2-0.8,0.4-1.3,0.4c0-1.2,0.5-2.3,1.4-3.2c0.1,0,0.1-0.1,0.2-0.2C11.9,2.3,11.8,3.3,12.1,4.3
			z"/>
		<path class="st1" d="M12.5,4.1c-0.2-1.1,0-2.2,0.6-3.2c0.3-0.2,0.6-0.3,0.9-0.4c0.2,0.3,0.3,0.6,0.4,1C14.1,2.5,13.4,3.4,12.5,4.1
			L12.5,4.1z"/>
		<path class="st1" d="M7.5,4.1C6.6,3.5,5.9,2.5,5.6,1.4C5.7,1,5.8,0.7,6,0.4c0.3,0.1,0.7,0.2,1,0.4l0,0C7.6,1.8,7.8,3,7.5,4.1z"/>
		<path class="st1" d="M8,4.3c0.2-1,0.2-2-0.2-3c0.1,0,0.1,0.1,0.2,0.2c0.9,0.9,1.4,2.1,1.4,3.2C8.8,4.7,8.4,4.6,8,4.3L8,4.3z"/>
		<path class="st1" d="M12.1,4.3c-0.4,0.2-0.8,0.4-1.3,0.4c0-1.2,0.5-2.3,1.4-3.2c0.1,0,0.1-0.1,0.2-0.2C11.9,2.3,11.8,3.3,12.1,4.3
			z"/>
		<path class="st1" d="M14.4,1.4c-0.3,1.1-1,2.1-1.9,2.7c-0.2-1.1,0-2.2,0.6-3.2c0.3-0.2,0.6-0.3,0.9-0.4C14.2,0.7,14.3,1,14.4,1.4
			L14.4,1.4z"/>
		<path class="st1" d="M0.8,7L0.8,7C0.6,6.7,0.5,6.3,0.3,6c0.3-0.2,0.7-0.3,1-0.4c1.1,0.3,2.1,1,2.7,2C3,7.8,1.8,7.6,0.8,7L0.8,7z"
			/>
		<path class="st1" d="M4.4,8c0.2,0.4,0.3,0.9,0.4,1.3c-1.2,0-2.3-0.5-3.2-1.4c0-0.1-0.1-0.1-0.2-0.2C2.3,8.2,3.4,8.2,4.4,8z"/>
		<path class="st1" d="M2.3,5.4c0.1,0,0.2,0,0.2,0C3.8,5.4,5,6,5.8,6.8C5.4,7.1,5,7.3,4.6,7.4C4.1,6.5,3.3,5.8,2.3,5.4z"/>
		<path class="st1" d="M7,8.8C6.4,9.1,5.8,9.2,5.2,9.3C5.2,8.8,5,8.3,4.8,7.9c0.5-0.2,0.9-0.4,1.3-0.7C6.5,7.6,6.8,8.2,7,8.8z"/>
		<path class="st1" d="M8.5,7.3C8.4,7.6,8.2,7.8,8,8l0,0C7.8,8.2,7.6,8.4,7.3,8.5C7.2,7.9,6.8,7.4,6.4,6.9c0.1-0.1,0.2-0.1,0.2-0.2
			s0.2-0.2,0.2-0.2C7.4,6.8,7.9,7.2,8.5,7.3L8.5,7.3z"/>
		<path class="st1" d="M7.4,4.6C7.3,5,7.1,5.4,6.8,5.8C6,5,5.5,3.8,5.5,2.5c0-0.1,0-0.2,0-0.2C5.8,3.2,6.5,4,7.4,4.6L7.4,4.6z"/>
		<path class="st1" d="M7.5,4.1C6.6,3.5,5.9,2.5,5.6,1.4C5.7,1,5.8,0.7,6,0.4c0.3,0.1,0.7,0.2,1,0.4l0,0C7.6,1.8,7.8,3,7.5,4.1z"/>
		<path class="st1" d="M7.8,4.8C8.3,5,8.8,5.2,9.3,5.2C9.2,5.8,9,6.4,8.8,7C8.2,6.8,7.6,6.5,7.2,6.1C7.5,5.7,7.7,5.2,7.8,4.8z"/>
		<path class="st1" d="M7.8,1.4c0.1,0,0.1,0.1,0.2,0.2c0.9,0.9,1.4,2.1,1.4,3.2C8.8,4.7,8.4,4.5,8,4.3C8.2,3.3,8.2,2.3,7.8,1.4
			L7.8,1.4z"/>
		<path class="st1" d="M4.1,7.6C3,7.8,1.8,7.6,0.8,7l0,0C0.6,6.7,0.5,6.3,0.3,6c0.3-0.2,0.7-0.3,1-0.4C2.5,5.9,3.5,6.6,4.1,7.6
			L4.1,7.6z"/>
		<path class="st1" d="M5.8,6.8C5.4,7.1,5,7.3,4.6,7.4c-0.5-0.9-1.3-1.6-2.3-2c0.1,0,0.2,0,0.2,0C3.8,5.4,5,6,5.8,6.8z"/>
		<path class="st1" d="M7.4,4.6C7.3,5,7.1,5.4,6.8,5.8C6,5,5.5,3.8,5.5,2.5c0-0.1,0-0.2,0-0.2C5.8,3.2,6.5,4,7.4,4.6L7.4,4.6z"/>
		<path class="st1" d="M7.5,4.1C6.6,3.5,5.9,2.5,5.6,1.4C5.7,1,5.8,0.7,6,0.4c0.3,0.1,0.7,0.2,1,0.4l0,0C7.6,1.8,7.8,3,7.5,4.1z"/>
		<path class="st1" d="M4.1,7.6C3,7.8,1.8,7.6,0.8,7l0,0C0.6,6.7,0.5,6.3,0.3,6c0.3-0.2,0.7-0.3,1-0.4C2.5,5.9,3.5,6.6,4.1,7.6
			L4.1,7.6z"/>
		<path class="st1" d="M5.8,6.8C5.4,7.1,5,7.3,4.6,7.4c-0.5-0.9-1.3-1.6-2.3-2c0.1,0,0.2,0,0.2,0C3.8,5.4,5,6,5.8,6.8z"/>
		<path class="st1" d="M7.4,4.6C7.3,5,7.1,5.4,6.8,5.8C6,5,5.5,3.8,5.5,2.5c0-0.1,0-0.2,0-0.2C5.8,3.2,6.5,4,7.4,4.6L7.4,4.6z"/>
		<path class="st1" d="M7.5,4.1C6.6,3.5,5.9,2.5,5.6,1.4C5.7,1,5.8,0.7,6,0.4c0.3,0.1,0.7,0.2,1,0.4l0,0C7.6,1.8,7.8,3,7.5,4.1z"/>
		<path class="st1" d="M0.8,7L0.8,7C0.6,6.7,0.5,6.3,0.3,6c0.3-0.2,0.7-0.3,1-0.4c1.1,0.3,2.1,1,2.7,2C3,7.8,1.8,7.6,0.8,7L0.8,7z"
			/>
		<path class="st1" d="M4.4,8c0.2,0.4,0.3,0.9,0.4,1.3c-1.2,0-2.3-0.5-3.2-1.4c0-0.1-0.1-0.1-0.2-0.2C2.3,8.2,3.4,8.2,4.4,8z"/>
		<path class="st1" d="M2.3,5.4c0.1,0,0.2,0,0.2,0C3.8,5.4,5,6,5.8,6.8C5.4,7.1,5,7.3,4.6,7.4C4.1,6.5,3.3,5.8,2.3,5.4z"/>
		<path class="st1" d="M7,8.8C6.4,9.1,5.8,9.2,5.2,9.3C5.2,8.8,5,8.3,4.8,7.9c0.5-0.2,0.9-0.4,1.3-0.7C6.5,7.6,6.8,8.2,7,8.8z"/>
		<path class="st1" d="M1.3,14.3c-0.4-0.1-0.7-0.2-1-0.4c0.1-0.3,0.3-0.7,0.4-1l0,0c1-0.6,2.2-0.8,3.3-0.5
			C3.5,13.4,2.5,14.1,1.3,14.3L1.3,14.3z"/>
		<path class="st1" d="M5.8,13.2c-0.8,0.8-2,1.3-3.3,1.3c-0.1,0-0.2,0-0.2,0c1-0.4,1.7-1.1,2.3-1.9C5,12.7,5.4,12.9,5.8,13.2
			L5.8,13.2z"/>
		<path class="st1" d="M4.8,10.7c-0.1,0.5-0.2,0.9-0.4,1.3c-1-0.3-2-0.2-3,0.2c0-0.1,0.1-0.1,0.2-0.2C2.4,11.1,3.6,10.7,4.8,10.7
			L4.8,10.7z"/>
		<path class="st1" d="M5.2,10.7c0.6,0.1,1.2,0.2,1.7,0.6c-0.2,0.6-0.5,1.1-0.9,1.6c-0.4-0.3-0.8-0.6-1.3-0.7
			C5,11.7,5.2,11.2,5.2,10.7L5.2,10.7z"/>
		<path class="st1" d="M7.2,10L7.2,10c0,0.3,0,0.6-0.1,0.9c-0.6-0.3-1.2-0.5-1.8-0.5c0-0.1,0-0.2,0-0.3c0-0.1,0-0.2,0-0.3
			c0.6-0.1,1.2-0.2,1.8-0.5C7.1,9.4,7.2,9.7,7.2,10L7.2,10z"/>
		<path class="st1" d="M0.8,7L0.8,7C0.6,6.7,0.5,6.3,0.3,6c0.3-0.2,0.7-0.3,1-0.4c1.1,0.3,2.1,1,2.7,2C3,7.8,1.8,7.6,0.8,7L0.8,7z"
			/>
		<path class="st1" d="M4.8,9.3c-1.2,0-2.3-0.5-3.2-1.4c0-0.1-0.1-0.1-0.2-0.2c0.9,0.4,2,0.5,3,0.2C4.6,8.4,4.7,8.8,4.8,9.3z"/>
		<path class="st1" d="M4.1,12.4c-0.6,0.9-1.6,1.6-2.8,1.9c-0.4-0.1-0.7-0.2-1-0.4c0.1-0.3,0.3-0.7,0.4-1l0,0
			C1.8,12.4,3,12.2,4.1,12.4L4.1,12.4z"/>
		<path class="st1" d="M4.8,10.7c-0.1,0.5-0.2,0.9-0.4,1.3c-1-0.3-2-0.2-3,0.2c0-0.1,0.1-0.1,0.2-0.2C2.4,11.1,3.6,10.7,4.8,10.7
			L4.8,10.7z"/>
		<path class="st1" d="M0.8,7L0.8,7C0.6,6.7,0.5,6.3,0.3,6c0.3-0.2,0.7-0.3,1-0.4c1.1,0.3,2.1,1,2.7,2C3,7.8,1.8,7.6,0.8,7L0.8,7z"
			/>
		<path class="st1" d="M4.8,9.3c-1.2,0-2.3-0.5-3.2-1.4c0-0.1-0.1-0.1-0.2-0.2c0.9,0.4,2,0.5,3,0.2C4.6,8.4,4.7,8.8,4.8,9.3z"/>
		<path class="st1" d="M4.1,12.4c-0.6,0.9-1.6,1.6-2.8,1.9c-0.4-0.1-0.7-0.2-1-0.4c0.1-0.3,0.3-0.7,0.4-1l0,0
			C1.8,12.4,3,12.2,4.1,12.4L4.1,12.4z"/>
		<path class="st1" d="M4.8,10.7c-0.1,0.5-0.2,0.9-0.4,1.3c-1-0.3-2-0.2-3,0.2c0-0.1,0.1-0.1,0.2-0.2C2.4,11.1,3.6,10.7,4.8,10.7
			L4.8,10.7z"/>
		<path class="st1" d="M1.3,14.3c-0.4-0.1-0.7-0.2-1-0.4c0.1-0.3,0.3-0.7,0.4-1l0,0c1-0.6,2.2-0.8,3.3-0.5
			C3.5,13.4,2.5,14.1,1.3,14.3L1.3,14.3z"/>
		<path class="st1" d="M5.8,13.2c-0.8,0.8-2,1.3-3.3,1.3c-0.1,0-0.2,0-0.2,0c1-0.4,1.7-1.1,2.3-1.9C5,12.7,5.4,12.9,5.8,13.2
			L5.8,13.2z"/>
		<path class="st1" d="M4.8,10.7c-0.1,0.5-0.2,0.9-0.4,1.3c-1-0.3-2-0.2-3,0.2c0-0.1,0.1-0.1,0.2-0.2C2.4,11.1,3.6,10.7,4.8,10.7
			L4.8,10.7z"/>
		<path class="st1" d="M7,11.2c-0.2,0.6-0.5,1.1-0.9,1.6c-0.4-0.3-0.8-0.6-1.3-0.7c0.2-0.4,0.4-0.9,0.4-1.4
			C5.8,10.7,6.4,10.9,7,11.2L7,11.2z"/>
		<path class="st1" d="M6.8,14.2C7,14.6,7.2,15,7.4,15.4c-0.9,0.5-1.6,1.3-2,2.2c0-0.1,0-0.1,0-0.2C5.4,16.2,5.9,15,6.8,14.2
			L6.8,14.2z"/>
		<path class="st1" d="M8.5,12.7c-0.6,0.2-1.2,0.5-1.6,0.9c-0.1-0.1-0.2-0.2-0.2-0.3c-0.1-0.1-0.1-0.1-0.2-0.2
			c0.4-0.5,0.7-1,0.9-1.6C7.6,11.6,7.8,11.8,8,12l0,0C8.2,12.2,8.4,12.4,8.5,12.7L8.5,12.7z"/>
		<path class="st1" d="M9.2,14.8c-0.5,0.1-1,0.2-1.4,0.4c-0.2-0.5-0.4-0.9-0.7-1.3c0.5-0.4,1-0.7,1.6-0.8C9,13.6,9.2,14.2,9.2,14.8z
			"/>
		<path class="st1" d="M7.5,15.9c0.2,1.1,0,2.3-0.6,3.3l0,0c-0.3,0.2-0.7,0.3-1,0.4c-0.2-0.3-0.3-0.7-0.4-1
			C5.9,17.5,6.6,16.5,7.5,15.9L7.5,15.9z"/>
		<path class="st1" d="M9.2,15.2c0,1.2-0.5,2.3-1.4,3.2c-0.1,0-0.1,0.1-0.2,0.2c0.4-0.9,0.5-2,0.3-3C8.3,15.4,8.8,15.3,9.2,15.2z"/>
		<path class="st1" d="M1.3,14.3c-0.4-0.1-0.7-0.2-1-0.4c0.1-0.3,0.3-0.7,0.4-1l0,0c1-0.6,2.2-0.8,3.3-0.5
			C3.5,13.4,2.5,14.1,1.3,14.3L1.3,14.3z"/>
		<path class="st1" d="M5.8,13.2c-0.8,0.8-2,1.3-3.3,1.3c-0.1,0-0.2,0-0.2,0c1-0.4,1.7-1.1,2.3-1.9C5,12.7,5.4,12.9,5.8,13.2
			L5.8,13.2z"/>
		<path class="st1" d="M7.4,15.4c-0.9,0.5-1.6,1.3-2,2.2c0-0.1,0-0.1,0-0.2c0-1.3,0.5-2.4,1.3-3.2C7,14.6,7.2,15,7.4,15.4L7.4,15.4z
			"/>
		<path class="st1" d="M7.5,15.9c0.2,1.1,0,2.3-0.6,3.3l0,0c-0.3,0.2-0.7,0.3-1,0.4c-0.2-0.3-0.3-0.7-0.4-1
			C5.9,17.5,6.6,16.5,7.5,15.9L7.5,15.9z"/>
		<path class="st1" d="M1.3,14.3c-0.4-0.1-0.7-0.2-1-0.4c0.1-0.3,0.3-0.7,0.4-1l0,0c1-0.6,2.2-0.8,3.3-0.5
			C3.5,13.4,2.5,14.1,1.3,14.3L1.3,14.3z"/>
		<path class="st1" d="M5.8,13.2c-0.8,0.8-2,1.3-3.3,1.3c-0.1,0-0.2,0-0.2,0c1-0.4,1.7-1.1,2.3-1.9C5,12.7,5.4,12.9,5.8,13.2
			L5.8,13.2z"/>
		<path class="st1" d="M7.4,15.4c-0.9,0.5-1.6,1.3-2,2.2c0-0.1,0-0.1,0-0.2c0-1.3,0.5-2.4,1.3-3.2C7,14.6,7.2,15,7.4,15.4L7.4,15.4z
			"/>
		<path class="st1" d="M6.9,19.2L6.9,19.2c-0.3,0.2-0.7,0.3-1,0.4c-0.2-0.3-0.3-0.7-0.4-1c0.3-1.1,1-2.1,1.9-2.7
			C7.7,17,7.5,18.2,6.9,19.2L6.9,19.2z"/>
		<path class="st1" d="M7.5,15.9c0.2,1.1,0,2.3-0.6,3.3l0,0c-0.3,0.2-0.7,0.3-1,0.4c-0.2-0.3-0.3-0.7-0.4-1
			C5.9,17.5,6.6,16.5,7.5,15.9L7.5,15.9z"/>
		<path class="st1" d="M7.9,15.6c0.4-0.2,0.8-0.3,1.3-0.4c0,1.2-0.5,2.3-1.4,3.2c-0.1,0-0.1,0.1-0.2,0.2C8.1,17.7,8.2,16.6,7.9,15.6
			z"/>
		<path class="st1" d="M12.2,18.7c-0.1,0-0.1-0.1-0.2-0.2c-0.9-0.9-1.3-2.1-1.4-3.3c0.5,0.1,0.9,0.2,1.3,0.4
			C11.7,16.7,11.8,17.7,12.2,18.7L12.2,18.7z"/>
		<path class="st1" d="M14.3,18.7c-0.1,0.4-0.2,0.7-0.4,1c-0.3-0.1-0.7-0.3-1-0.4l0,0c-0.6-1-0.8-2.2-0.5-3.3
			C13.4,16.6,14,17.5,14.3,18.7L14.3,18.7z"/>
		<path class="st1" d="M6.8,14.2C7,14.6,7.2,15,7.4,15.4c-0.9,0.5-1.6,1.3-2,2.2c0-0.1,0-0.1,0-0.2C5.4,16.2,5.9,15,6.8,14.2
			L6.8,14.2z"/>
		<path class="st1" d="M8.7,13c0.3,0.6,0.5,1.1,0.5,1.7c-0.5,0.1-1,0.2-1.4,0.4c-0.2-0.5-0.4-0.9-0.7-1.3C7.6,13.5,8.1,13.2,8.7,13z
			"/>
		<path class="st1" d="M10.8,12.9c-0.3,0.6-0.5,1.2-0.5,1.8c-0.1,0-0.2,0-0.4,0c-0.1,0-0.2,0-0.3,0c-0.1-0.6-0.2-1.2-0.5-1.8
			c0.2-0.1,0.5-0.1,0.8-0.1H10C10.3,12.8,10.6,12.9,10.8,12.9z"/>
		<path class="st1" d="M12.8,13.9c-0.3,0.4-0.6,0.9-0.7,1.3c-0.4-0.2-0.9-0.4-1.4-0.4c0.1-0.6,0.2-1.2,0.5-1.7
			C11.8,13.2,12.3,13.5,12.8,13.9z"/>
		<path class="st1" d="M14.5,17.5c0,0.1,0,0.1,0,0.2c-0.4-0.9-1-1.7-1.9-2.3c0.1-0.4,0.4-0.8,0.6-1.2C14,15.1,14.5,16.2,14.5,17.5
			L14.5,17.5z"/>
		<path class="st1" d="M7.5,15.9c0.2,1.1,0,2.3-0.6,3.3l0,0c-0.3,0.2-0.7,0.3-1,0.4c-0.2-0.3-0.3-0.7-0.4-1
			C5.9,17.5,6.6,16.5,7.5,15.9L7.5,15.9z"/>
		<path class="st1" d="M7.9,15.6c0.4-0.2,0.8-0.3,1.3-0.4c0,1.2-0.5,2.3-1.4,3.2c-0.1,0-0.1,0.1-0.2,0.2C8.1,17.7,8.2,16.6,7.9,15.6
			z"/>
		<path class="st1" d="M12.2,18.7c-0.1,0-0.1-0.1-0.2-0.2c-0.9-0.9-1.3-2.1-1.4-3.3c0.5,0.1,0.9,0.2,1.3,0.4
			C11.7,16.7,11.8,17.7,12.2,18.7L12.2,18.7z"/>
		<path class="st1" d="M14.3,18.7c-0.1,0.4-0.2,0.7-0.4,1c-0.3-0.1-0.7-0.3-1-0.4l0,0c-0.6-1-0.8-2.2-0.5-3.3
			C13.4,16.6,14,17.5,14.3,18.7L14.3,18.7z"/>
		<path class="st1" d="M6.9,19.2L6.9,19.2c-0.3,0.2-0.7,0.3-1,0.4c-0.2-0.3-0.3-0.7-0.4-1c0.3-1.1,1-2.1,1.9-2.7
			C7.7,17,7.5,18.2,6.9,19.2L6.9,19.2z"/>
		<path class="st1" d="M9.2,15.2c0,1.2-0.5,2.3-1.4,3.2c-0.1,0-0.1,0.1-0.2,0.2c0.4-0.9,0.5-2,0.3-3C8.3,15.4,8.8,15.3,9.2,15.2z"/>
		<path class="st1" d="M12.2,18.7c-0.1,0-0.1-0.1-0.2-0.2c-0.9-0.9-1.3-2.1-1.4-3.3c0.5,0.1,0.9,0.2,1.3,0.4
			C11.7,16.7,11.8,17.7,12.2,18.7L12.2,18.7z"/>
		<path class="st1" d="M14.3,18.7c-0.1,0.4-0.2,0.7-0.4,1c-0.3-0.1-0.7-0.3-1-0.4l0,0c-0.6-1-0.8-2.2-0.5-3.3
			C13.4,16.6,14,17.5,14.3,18.7L14.3,18.7z"/>
		<path class="st1" d="M12.2,18.7c-0.1,0-0.1-0.1-0.2-0.2c-0.9-0.9-1.3-2.1-1.4-3.3c0.5,0.1,0.9,0.2,1.3,0.4
			C11.7,16.7,11.8,17.7,12.2,18.7L12.2,18.7z"/>
		<path class="st1" d="M14.3,18.7c-0.1,0.4-0.2,0.7-0.4,1c-0.3-0.1-0.7-0.3-1-0.4l0,0c-0.6-1-0.8-2.2-0.5-3.3
			C13.4,16.6,14,17.5,14.3,18.7L14.3,18.7z"/>
		<path class="st1" d="M11.2,13c0.6,0.2,1.1,0.5,1.6,0.9c-0.3,0.4-0.6,0.9-0.7,1.3c-0.4-0.2-0.9-0.4-1.4-0.4
			C10.8,14.2,10.9,13.6,11.2,13z"/>
		<path class="st1" d="M13.6,13.1c-0.1,0.1-0.2,0.2-0.3,0.2c-0.1,0.1-0.1,0.1-0.2,0.2c-0.5-0.4-1-0.7-1.6-0.9
			c0.1-0.2,0.3-0.4,0.5-0.6l0,0c0.2-0.2,0.4-0.4,0.6-0.5C12.9,12.1,13.2,12.6,13.6,13.1L13.6,13.1z"/>
		<path class="st1" d="M15.2,12.2c-0.5,0.2-0.9,0.4-1.3,0.7c-0.4-0.5-0.7-1-0.8-1.6c0.6-0.3,1.1-0.5,1.7-0.5
			C14.8,11.3,15,11.8,15.2,12.2z"/>
		<path class="st1" d="M18.6,12.3c-0.9-0.4-2-0.5-3-0.3c-0.2-0.4-0.3-0.8-0.4-1.3c1.2,0,2.3,0.5,3.2,1.4
			C18.5,12.2,18.6,12.3,18.6,12.3z"/>
		<path class="st1" d="M14.5,17.5c0,0.1,0,0.1,0,0.2c-0.4-0.9-1-1.7-1.9-2.3c0.1-0.4,0.4-0.8,0.6-1.2C14,15.1,14.5,16.2,14.5,17.5
			L14.5,17.5z"/>
		<path class="st1" d="M17.7,14.6c-0.1,0-0.1,0-0.2,0c-1.3,0-2.4-0.5-3.2-1.4c0.4-0.3,0.8-0.5,1.2-0.6
			C15.9,13.5,16.7,14.2,17.7,14.6z"/>
		<path class="st1" d="M19.6,14.1c-0.3,0.2-0.7,0.3-1,0.4c-1.1-0.3-2.1-1-2.7-1.9c1.1-0.2,2.3,0,3.3,0.6
			C19.4,13.4,19.5,13.7,19.6,14.1L19.6,14.1z"/>
		<path class="st1" d="M14.3,18.7c-0.1,0.4-0.2,0.7-0.4,1c-0.3-0.1-0.7-0.3-1-0.4l0,0c-0.6-1-0.8-2.2-0.5-3.3
			C13.4,16.6,14,17.5,14.3,18.7L14.3,18.7z"/>
		<path class="st1" d="M14.5,17.5c0,0.1,0,0.1,0,0.2c-0.4-0.9-1-1.7-1.9-2.3c0.1-0.4,0.4-0.8,0.6-1.2C14,15.1,14.5,16.2,14.5,17.5
			L14.5,17.5z"/>
		<path class="st1" d="M17.7,14.6c-0.1,0-0.1,0-0.2,0c-1.3,0-2.4-0.5-3.2-1.4c0.4-0.3,0.8-0.5,1.2-0.6
			C15.9,13.5,16.7,14.2,17.7,14.6z"/>
		<path class="st1" d="M19.6,14.1c-0.3,0.2-0.7,0.3-1,0.4c-1.1-0.3-2.1-1-2.7-1.9c1.1-0.2,2.3,0,3.3,0.6
			C19.4,13.4,19.5,13.7,19.6,14.1L19.6,14.1z"/>
		<path class="st1" d="M14.3,18.7c-0.1,0.4-0.2,0.7-0.4,1c-0.3-0.1-0.7-0.3-1-0.4l0,0c-0.6-1-0.8-2.2-0.5-3.3
			C13.4,16.6,14,17.5,14.3,18.7L14.3,18.7z"/>
		<path class="st1" d="M14.5,17.5c0,0.1,0,0.1,0,0.2c-0.4-0.9-1-1.7-1.9-2.3c0.1-0.4,0.4-0.8,0.6-1.2C14,15.1,14.5,16.2,14.5,17.5
			L14.5,17.5z"/>
		<path class="st1" d="M17.7,14.6c-0.1,0-0.1,0-0.2,0c-1.3,0-2.4-0.5-3.2-1.4c0.4-0.3,0.8-0.5,1.2-0.6
			C15.9,13.5,16.7,14.2,17.7,14.6z"/>
		<path class="st1" d="M19.6,14.1c-0.3,0.2-0.7,0.3-1,0.4c-1.1-0.3-2.1-1-2.7-1.9c1.1-0.2,2.3,0,3.3,0.6
			C19.4,13.4,19.5,13.7,19.6,14.1L19.6,14.1z"/>
		<path class="st1" d="M15.4,7.5c-0.4-0.1-0.8-0.3-1.2-0.6c0.8-0.8,2-1.3,3.3-1.3c0.1,0,0.1,0,0.2,0C16.8,5.9,16,6.6,15.4,7.5
			L15.4,7.5z"/>
		<path class="st1" d="M19.7,6.1c-0.1,0.3-0.3,0.7-0.5,1c-1,0.6-2.2,0.8-3.3,0.5c0.6-0.9,1.6-1.6,2.7-1.9C19,5.8,19.4,5.9,19.7,6.1
			L19.7,6.1z"/>
		<path class="st1" d="M14.7,10.3c-0.6,0.1-1.2,0.2-1.8,0.5c-0.1-0.2-0.1-0.5-0.1-0.8V10c0-0.3,0-0.6,0.1-0.8
			c0.6,0.3,1.2,0.5,1.8,0.5c0,0.1,0,0.2,0,0.4C14.7,10.1,14.7,10.2,14.7,10.3L14.7,10.3z"/>
		<path class="st1" d="M15.2,12.2c-0.5,0.2-0.9,0.4-1.3,0.7c-0.4-0.5-0.7-1-0.8-1.6c0.6-0.3,1.1-0.5,1.7-0.5
			C14.8,11.3,15,11.8,15.2,12.2z"/>
		<path class="st1" d="M14.8,9.3c-0.6-0.1-1.2-0.2-1.7-0.5c0.2-0.6,0.5-1.1,0.9-1.6c0.4,0.3,0.9,0.6,1.3,0.7
			C15,8.3,14.9,8.8,14.8,9.3L14.8,9.3z"/>
		<path class="st1" d="M18.5,12.1c0,0.1,0.1,0.1,0.1,0.2c-0.9-0.4-2-0.5-3-0.3c-0.2-0.4-0.3-0.8-0.4-1.3
			C16.4,10.8,17.6,11.2,18.5,12.1z"/>
		<path class="st1" d="M18.6,7.8c0,0.1-0.1,0.1-0.1,0.2c-0.9,0.9-2.1,1.3-3.3,1.4c0.1-0.5,0.2-0.9,0.4-1.3
			C16.7,8.3,17.7,8.2,18.6,7.8z"/>
		<path class="st1" d="M17.7,14.6c-0.1,0-0.1,0-0.2,0c-1.3,0-2.4-0.5-3.2-1.4c0.4-0.3,0.8-0.5,1.2-0.6
			C15.9,13.5,16.7,14.2,17.7,14.6z"/>
		<path class="st1" d="M19.6,14.1c-0.3,0.2-0.7,0.3-1,0.4c-1.1-0.3-2.1-1-2.7-1.9c1.1-0.2,2.3,0,3.3,0.6
			C19.4,13.4,19.5,13.7,19.6,14.1L19.6,14.1z"/>
		<path class="st1" d="M19.7,6.1c-0.1,0.3-0.3,0.7-0.5,1c-1,0.6-2.2,0.8-3.3,0.5c0.6-0.9,1.6-1.6,2.7-1.9C19,5.8,19.4,5.9,19.7,6.1
			L19.7,6.1z"/>
		<path class="st1" d="M18.5,12.1c0,0.1,0.1,0.1,0.1,0.2c-0.9-0.4-2-0.5-3-0.3c-0.2-0.4-0.3-0.8-0.4-1.3
			C16.4,10.8,17.6,11.2,18.5,12.1z"/>
		<path class="st1" d="M18.6,7.8c0,0.1-0.1,0.1-0.1,0.2c-0.9,0.9-2.1,1.3-3.3,1.4c0.1-0.5,0.2-0.9,0.4-1.3
			C16.7,8.3,17.7,8.2,18.6,7.8z"/>
		<path class="st1" d="M19.6,14.1c-0.3,0.2-0.7,0.3-1,0.4c-1.1-0.3-2.1-1-2.7-1.9c1.1-0.2,2.3,0,3.3,0.6
			C19.4,13.4,19.5,13.7,19.6,14.1L19.6,14.1z"/>
		<path class="st1" d="M18.6,7.8c0,0.1-0.1,0.1-0.1,0.2c-0.9,0.9-2.1,1.3-3.3,1.4c0.1-0.5,0.2-0.9,0.4-1.3
			C16.7,8.3,17.7,8.2,18.6,7.8z"/>
		<path class="st1" d="M19.7,6.1c-0.1,0.3-0.3,0.7-0.5,1c-1,0.6-2.2,0.8-3.3,0.5c0.6-0.9,1.6-1.6,2.7-1.9C19,5.8,19.4,5.9,19.7,6.1
			L19.7,6.1z"/>
		<path class="st1" d="M18.6,12.3c-0.9-0.4-2-0.5-3-0.3c-0.2-0.4-0.3-0.8-0.4-1.3c1.2,0,2.3,0.5,3.2,1.4
			C18.5,12.2,18.6,12.3,18.6,12.3z"/>
		<path class="st1" d="M19.6,14.1c-0.3,0.2-0.7,0.3-1,0.4c-1.1-0.3-2.1-1-2.7-1.9c1.1-0.2,2.3,0,3.3,0.6
			C19.4,13.4,19.5,13.7,19.6,14.1L19.6,14.1z"/>
		<path class="st1" d="M12.5,4.1c-0.2-1.1,0-2.2,0.6-3.2c0.3-0.2,0.6-0.3,0.9-0.4c0.2,0.3,0.3,0.6,0.4,1C14.1,2.5,13.4,3.4,12.5,4.1
			L12.5,4.1z"/>
		<path class="st1" d="M12.1,4.3c-0.4,0.2-0.8,0.4-1.3,0.4c0-1.2,0.5-2.3,1.4-3.2c0.1,0,0.1-0.1,0.2-0.2C11.9,2.3,11.8,3.3,12.1,4.3
			z"/>
		<path class="st1" d="M13.2,5.8c-0.3-0.4-0.5-0.8-0.6-1.2c0.9-0.5,1.5-1.3,1.9-2.2c0,0.1,0,0.2,0,0.2C14.5,3.8,14,4.9,13.2,5.8
			L13.2,5.8z"/>
		<path class="st1" d="M12.9,6.1c-0.5,0.4-1,0.7-1.6,0.9c-0.3-0.5-0.5-1.1-0.5-1.7c0.5-0.1,1-0.2,1.4-0.4
			C12.3,5.3,12.6,5.7,12.9,6.1L12.9,6.1z"/>
		<path class="st1" d="M13.6,6.9c-0.4,0.5-0.7,1-0.9,1.6C12.4,8.4,12.2,8.2,12,8l0,0c-0.2-0.2-0.4-0.4-0.5-0.7
			c0.6-0.2,1.1-0.5,1.6-0.9c0.1,0.1,0.2,0.2,0.2,0.3C13.4,6.8,13.5,6.8,13.6,6.9L13.6,6.9z"/>
		<path class="st1" d="M15.2,7.9c-0.2,0.4-0.4,0.9-0.4,1.4c-0.6-0.1-1.2-0.2-1.7-0.5c0.2-0.6,0.5-1.1,0.9-1.6
			C14.3,7.5,14.8,7.7,15.2,7.9L15.2,7.9z"/>
		<path class="st1" d="M18.6,7.8c0,0.1-0.1,0.1-0.1,0.2c-0.9,0.9-2.1,1.3-3.3,1.4c0.1-0.5,0.2-0.9,0.4-1.3
			C16.7,8.3,17.7,8.2,18.6,7.8z"/>
		<path class="st1" d="M15.4,7.5c-0.4-0.1-0.8-0.3-1.2-0.6c0.8-0.8,2-1.3,3.3-1.3c0.1,0,0.1,0,0.2,0C16.8,5.9,16,6.6,15.4,7.5
			L15.4,7.5z"/>
		<path class="st1" d="M19.7,6.1c-0.1,0.3-0.3,0.7-0.5,1c-1,0.6-2.2,0.8-3.3,0.5c0.6-0.9,1.6-1.6,2.7-1.9C19,5.8,19.4,5.9,19.7,6.1
			L19.7,6.1z"/>
		<path class="st1" d="M12.5,4.1c-0.2-1.1,0-2.2,0.6-3.2c0.3-0.2,0.6-0.3,0.9-0.4c0.2,0.3,0.3,0.6,0.4,1C14.1,2.5,13.4,3.4,12.5,4.1
			L12.5,4.1z"/>
		<path class="st1" d="M14.5,2.5c0,1.3-0.5,2.4-1.3,3.3c-0.3-0.4-0.5-0.8-0.6-1.2c0.9-0.5,1.5-1.3,1.9-2.2
			C14.5,2.4,14.5,2.5,14.5,2.5L14.5,2.5z"/>
		<path class="st1" d="M15.4,7.5c-0.4-0.1-0.8-0.3-1.2-0.6c0.8-0.8,2-1.3,3.3-1.3c0.1,0,0.1,0,0.2,0C16.8,5.9,16,6.6,15.4,7.5
			L15.4,7.5z"/>
		<path class="st1" d="M19.7,6.1c-0.1,0.3-0.3,0.7-0.5,1c-1,0.6-2.2,0.8-3.3,0.5c0.6-0.9,1.6-1.6,2.7-1.9C19,5.8,19.4,5.9,19.7,6.1
			L19.7,6.1z"/>
		<path class="st1" d="M14.4,1.4c-0.3,1.1-1,2.1-1.9,2.7c-0.2-1.1,0-2.2,0.6-3.2c0.3-0.2,0.6-0.3,0.9-0.4C14.2,0.7,14.3,1,14.4,1.4
			L14.4,1.4z"/>
		<path class="st1" d="M14.5,2.5c0,1.3-0.5,2.4-1.3,3.3c-0.3-0.4-0.5-0.8-0.6-1.2c0.9-0.5,1.5-1.3,1.9-2.2
			C14.5,2.4,14.5,2.5,14.5,2.5L14.5,2.5z"/>
		<path class="st1" d="M15.4,7.5c-0.4-0.1-0.8-0.3-1.2-0.6c0.8-0.8,2-1.3,3.3-1.3c0.1,0,0.1,0,0.2,0C16.8,5.9,16,6.6,15.4,7.5
			L15.4,7.5z"/>
		<path class="st1" d="M19.7,6.1c-0.1,0.3-0.3,0.7-0.5,1c-1,0.6-2.2,0.8-3.3,0.5c0.6-0.9,1.6-1.6,2.7-1.9C19,5.8,19.4,5.9,19.7,6.1
			L19.7,6.1z"/>
		<path class="st1" d="M0.8,7L0.8,7C0.6,6.7,0.5,6.3,0.3,6c0.3-0.2,0.7-0.3,1-0.4c1.1,0.3,2.1,1,2.7,2C3,7.8,1.8,7.6,0.8,7L0.8,7z"
			/>
		<path class="st1" d="M4.4,8c0.2,0.4,0.3,0.9,0.4,1.3c-1.2,0-2.3-0.5-3.2-1.4c0-0.1-0.1-0.1-0.2-0.2C2.3,8.2,3.4,8.2,4.4,8z"/>
		<path class="st1" d="M2.3,5.4c0.1,0,0.2,0,0.2,0C3.8,5.4,5,6,5.8,6.8C5.4,7.1,5,7.3,4.6,7.4C4.1,6.5,3.3,5.8,2.3,5.4z"/>
		<path class="st1" d="M7,8.8C6.4,9.1,5.8,9.2,5.2,9.3C5.2,8.8,5,8.3,4.8,7.9c0.5-0.2,0.9-0.4,1.3-0.7C6.5,7.6,6.8,8.2,7,8.8z"/>
		<path class="st1" d="M8.5,7.3C8.4,7.6,8.2,7.8,8,8l0,0C7.8,8.2,7.6,8.4,7.3,8.5C7.2,7.9,6.8,7.4,6.4,6.9c0.1-0.1,0.2-0.1,0.2-0.2
			s0.2-0.2,0.2-0.2C7.4,6.8,7.9,7.2,8.5,7.3L8.5,7.3z"/>
		<path class="st1" d="M7.4,4.6C7.3,5,7.1,5.4,6.8,5.8C6,5,5.5,3.8,5.5,2.5c0-0.1,0-0.2,0-0.2C5.8,3.2,6.5,4,7.4,4.6L7.4,4.6z"/>
		<path class="st1" d="M7.5,4.1C6.6,3.5,5.9,2.5,5.6,1.4C5.7,1,5.8,0.7,6,0.4c0.3,0.1,0.7,0.2,1,0.4l0,0C7.6,1.8,7.8,3,7.5,4.1z"/>
		<path class="st1" d="M7.8,4.8C8.3,5,8.8,5.2,9.3,5.2C9.2,5.8,9,6.4,8.8,7C8.2,6.8,7.6,6.5,7.2,6.1C7.5,5.7,7.7,5.2,7.8,4.8z"/>
		<path class="st1" d="M7.8,1.4c0.1,0,0.1,0.1,0.2,0.2c0.9,0.9,1.4,2.1,1.4,3.2C8.8,4.7,8.4,4.5,8,4.3C8.2,3.3,8.2,2.3,7.8,1.4
			L7.8,1.4z"/>
		<path class="st1" d="M0.8,7L0.8,7C0.6,6.7,0.5,6.3,0.3,6c0.3-0.2,0.7-0.3,1-0.4c1.1,0.3,2.1,1,2.7,2C3,7.8,1.8,7.6,0.8,7L0.8,7z"
			/>
		<path class="st1" d="M4.4,8c0.2,0.4,0.3,0.9,0.4,1.3c-1.2,0-2.3-0.5-3.2-1.4c0-0.1-0.1-0.1-0.2-0.2C2.3,8.2,3.4,8.2,4.4,8z"/>
		<path class="st1" d="M2.3,5.4c0.1,0,0.2,0,0.2,0C3.8,5.4,5,6,5.8,6.8C5.4,7.1,5,7.3,4.6,7.4C4.1,6.5,3.3,5.8,2.3,5.4z"/>
		<path class="st1" d="M7,8.8C6.4,9.1,5.8,9.2,5.2,9.3C5.2,8.8,5,8.3,4.8,7.9c0.5-0.2,0.9-0.4,1.3-0.7C6.5,7.6,6.8,8.2,7,8.8z"/>
		<path class="st1" d="M1.3,14.3c-0.4-0.1-0.7-0.2-1-0.4c0.1-0.3,0.3-0.7,0.4-1l0,0c1-0.6,2.2-0.8,3.3-0.5
			C3.5,13.4,2.5,14.1,1.3,14.3L1.3,14.3z"/>
		<path class="st1" d="M5.8,13.2c-0.8,0.8-2,1.3-3.3,1.3c-0.1,0-0.2,0-0.2,0c1-0.4,1.7-1.1,2.3-1.9C5,12.7,5.4,12.9,5.8,13.2
			L5.8,13.2z"/>
		<path class="st1" d="M4.8,10.7c-0.1,0.5-0.2,0.9-0.4,1.3c-1-0.3-2-0.2-3,0.2c0-0.1,0.1-0.1,0.2-0.2C2.4,11.1,3.6,10.7,4.8,10.7
			L4.8,10.7z"/>
		<path class="st1" d="M5.2,10.7c0.6,0.1,1.2,0.2,1.7,0.6c-0.2,0.6-0.5,1.1-0.9,1.6c-0.4-0.3-0.8-0.6-1.3-0.7
			C5,11.7,5.2,11.2,5.2,10.7L5.2,10.7z"/>
		<path class="st1" d="M7.2,10L7.2,10c0,0.3,0,0.6-0.1,0.9c-0.6-0.3-1.2-0.5-1.8-0.5c0-0.1,0-0.2,0-0.3c0-0.1,0-0.2,0-0.3
			c0.6-0.1,1.2-0.2,1.8-0.5C7.1,9.4,7.2,9.7,7.2,10L7.2,10z"/>
		<path class="st1" d="M0.8,7L0.8,7C0.6,6.7,0.5,6.3,0.3,6c0.3-0.2,0.7-0.3,1-0.4c1.1,0.3,2.1,1,2.7,2C3,7.8,1.8,7.6,0.8,7L0.8,7z"
			/>
		<path class="st1" d="M4.4,8c0.2,0.4,0.3,0.9,0.4,1.3c-1.2,0-2.3-0.5-3.2-1.4c0-0.1-0.1-0.1-0.2-0.2C2.3,8.2,3.4,8.2,4.4,8z"/>
		<path class="st1" d="M2.3,5.4c0.1,0,0.2,0,0.2,0C3.8,5.4,5,6,5.8,6.8C5.4,7.1,5,7.3,4.6,7.4C4.1,6.5,3.3,5.8,2.3,5.4z"/>
		<path class="st1" d="M7,8.8C6.4,9.1,5.8,9.2,5.2,9.3C5.2,8.8,5,8.3,4.8,7.9c0.5-0.2,0.9-0.4,1.3-0.7C6.5,7.6,6.8,8.2,7,8.8z"/>
		<path class="st1" d="M8.5,7.3C8.4,7.6,8.2,7.8,8,8l0,0C7.8,8.2,7.6,8.4,7.3,8.5C7.2,7.9,6.8,7.4,6.4,6.9c0.1-0.1,0.2-0.1,0.2-0.2
			s0.2-0.2,0.2-0.2C7.4,6.8,7.9,7.2,8.5,7.3L8.5,7.3z"/>
		<path class="st1" d="M7.4,4.6C7.3,5,7.1,5.4,6.8,5.8C6,5,5.5,3.8,5.5,2.5c0-0.1,0-0.2,0-0.2C5.8,3.2,6.5,4,7.4,4.6L7.4,4.6z"/>
		<path class="st1" d="M7.5,4.1C6.6,3.5,5.9,2.5,5.6,1.4C5.7,1,5.8,0.7,6,0.4c0.3,0.1,0.7,0.2,1,0.4l0,0C7.6,1.8,7.8,3,7.5,4.1z"/>
		<path class="st1" d="M7.8,4.8C8.3,5,8.8,5.2,9.3,5.2C9.2,5.8,9,6.4,8.8,7C8.2,6.8,7.6,6.5,7.2,6.1C7.5,5.7,7.7,5.2,7.8,4.8z"/>
		<path class="st1" d="M7.8,1.4c0.1,0,0.1,0.1,0.2,0.2c0.9,0.9,1.4,2.1,1.4,3.2C8.8,4.7,8.4,4.5,8,4.3C8.2,3.3,8.2,2.3,7.8,1.4
			L7.8,1.4z"/>
		<path class="st1" d="M10.8,7.1c-0.3,0.1-0.6,0.1-0.8,0.1s-0.6,0-0.8-0.1c0.3-0.6,0.5-1.2,0.5-1.8c0.1,0,0.2,0,0.3,0s0.2,0,0.3,0
			C10.4,5.9,10.6,6.5,10.8,7.1L10.8,7.1z"/>
		<path class="st1" d="M7.8,4.8C7.7,5.3,7.5,5.7,7.2,6.1c0.5,0.4,1,0.7,1.6,0.9c0.3-0.5,0.5-1.1,0.5-1.7C8.8,5.2,8.3,5,7.8,4.8z
			 M9.3,4.8c0-1.2-0.5-2.3-1.4-3.2c-0.1,0-0.1-0.1-0.2-0.2c0.4,0.9,0.5,2,0.2,3C8.4,4.5,8.8,4.7,9.3,4.8L9.3,4.8z M5.5,2.3
			c0,0.1,0,0.2,0,0.2C5.5,3.8,6,5,6.8,5.8C7.1,5.4,7.3,5,7.4,4.6C6.5,4,5.8,3.2,5.5,2.3L5.5,2.3z M7,0.8L7,0.8
			C6.7,0.6,6.3,0.5,6,0.4C5.8,0.7,5.7,1,5.6,1.4c0.3,1.1,1,2.1,1.9,2.7C7.8,3,7.6,1.8,7,0.8z M12.3,1.4c-0.1,0-0.1,0.1-0.2,0.2
			c-0.9,0.9-1.4,2.1-1.4,3.2c0.5-0.1,0.9-0.2,1.3-0.4C11.8,3.3,11.9,2.3,12.3,1.4z M14.5,2.3c-0.4,0.9-1,1.7-1.9,2.3
			c0.1,0.4,0.3,0.8,0.6,1.2c0.8-0.8,1.3-2,1.3-3.3C14.5,2.5,14.5,2.4,14.5,2.3L14.5,2.3z M12.2,4.8c-0.4,0.2-0.9,0.4-1.4,0.4
			C10.8,5.8,11,6.4,11.2,7c0.6-0.2,1.1-0.5,1.6-0.9C12.5,5.7,12.3,5.2,12.2,4.8L12.2,4.8z M14,0.4c-0.3,0.1-0.6,0.2-0.9,0.4
			c-0.6,1-0.8,2.2-0.6,3.2c0.9-0.6,1.6-1.6,1.9-2.7C14.3,1,14.2,0.7,14,0.4L14,0.4z"/>
		<path class="st1" d="M12.5,4.1c-0.2-1.1,0-2.2,0.6-3.2c0.3-0.2,0.6-0.3,0.9-0.4c0.2,0.3,0.3,0.6,0.4,1C14.1,2.5,13.4,3.4,12.5,4.1
			L12.5,4.1z"/>
		<path class="st1" d="M12.1,4.3c-0.4,0.2-0.8,0.4-1.3,0.4c0-1.2,0.5-2.3,1.4-3.2c0.1,0,0.1-0.1,0.2-0.2C11.9,2.3,11.8,3.3,12.1,4.3
			z"/>
		<path class="st1" d="M13.2,5.8c-0.3-0.4-0.5-0.8-0.6-1.2c0.9-0.5,1.5-1.3,1.9-2.2c0,0.1,0,0.2,0,0.2C14.5,3.8,14,4.9,13.2,5.8
			L13.2,5.8z"/>
		<path class="st1" d="M11.3,7c-0.3-0.5-0.5-1.1-0.5-1.7c0.5-0.1,1-0.2,1.4-0.4c0.2,0.5,0.4,0.9,0.7,1.3C12.4,6.5,11.9,6.8,11.3,7
			L11.3,7z"/>
		<path class="st1" d="M13.6,6.9c-0.4,0.5-0.7,1-0.9,1.6C12.4,8.4,12.2,8.2,12,8l0,0c-0.2-0.2-0.4-0.4-0.5-0.7
			c0.6-0.2,1.1-0.5,1.6-0.9c0.1,0.1,0.2,0.2,0.2,0.3C13.4,6.8,13.5,6.8,13.6,6.9L13.6,6.9z"/>
		<path class="st1" d="M15.2,7.9c-0.2,0.4-0.4,0.9-0.4,1.4c-0.6-0.1-1.2-0.2-1.7-0.5c0.2-0.6,0.5-1.1,0.9-1.6
			C14.3,7.5,14.8,7.7,15.2,7.9L15.2,7.9z"/>
		<path class="st1" d="M18.6,7.8c0,0.1-0.1,0.1-0.1,0.2c-0.9,0.9-2.1,1.3-3.3,1.4c0.1-0.5,0.2-0.9,0.4-1.3
			C16.7,8.3,17.7,8.2,18.6,7.8z"/>
		<path class="st1" d="M15.4,7.5c-0.4-0.1-0.8-0.3-1.2-0.6c0.8-0.8,2-1.3,3.3-1.3c0.1,0,0.1,0,0.2,0C16.8,5.9,16,6.6,15.4,7.5
			L15.4,7.5z"/>
		<path class="st1" d="M19.7,6.1c-0.1,0.3-0.3,0.7-0.5,1c-1,0.6-2.2,0.8-3.3,0.5c0.6-0.9,1.6-1.6,2.7-1.9C19,5.8,19.4,5.9,19.7,6.1
			L19.7,6.1z"/>
		<path class="st1" d="M15.4,7.5c-0.4-0.1-0.8-0.3-1.2-0.6c0.8-0.8,2-1.3,3.3-1.3c0.1,0,0.1,0,0.2,0C16.8,5.9,16,6.6,15.4,7.5
			L15.4,7.5z"/>
		<path class="st1" d="M19.7,6.1c-0.1,0.3-0.3,0.7-0.5,1c-1,0.6-2.2,0.8-3.3,0.5c0.6-0.9,1.6-1.6,2.7-1.9C19,5.8,19.4,5.9,19.7,6.1
			L19.7,6.1z"/>
		<path class="st1" d="M14.7,10.3c-0.6,0.1-1.2,0.2-1.8,0.5c-0.1-0.2-0.1-0.5-0.1-0.8V10c0-0.3,0-0.6,0.1-0.8
			c0.6,0.3,1.2,0.5,1.8,0.5c0,0.1,0,0.2,0,0.4C14.7,10.1,14.7,10.2,14.7,10.3L14.7,10.3z"/>
		<path class="st1" d="M15.2,12.2c-0.5,0.2-0.9,0.4-1.3,0.7c-0.4-0.5-0.7-1-0.8-1.6c0.6-0.3,1.1-0.5,1.7-0.5
			C14.8,11.3,15,11.8,15.2,12.2z"/>
		<path class="st1" d="M14.8,9.3c-0.6-0.1-1.2-0.2-1.7-0.5c0.2-0.6,0.5-1.1,0.9-1.6c0.4,0.3,0.9,0.6,1.3,0.7
			C15,8.3,14.9,8.8,14.8,9.3L14.8,9.3z"/>
		<path class="st1" d="M18.5,12.1c0,0.1,0.1,0.1,0.1,0.2c-0.9-0.4-2-0.5-3-0.3c-0.2-0.4-0.3-0.8-0.4-1.3
			C16.4,10.8,17.6,11.2,18.5,12.1z"/>
		<path class="st1" d="M18.6,7.8c0,0.1-0.1,0.1-0.1,0.2c-0.9,0.9-2.1,1.3-3.3,1.4c0.1-0.5,0.2-0.9,0.4-1.3
			C16.7,8.3,17.7,8.2,18.6,7.8z"/>
		<path class="st1" d="M17.7,14.6c-0.1,0-0.1,0-0.2,0c-1.3,0-2.4-0.5-3.2-1.4c0.4-0.3,0.8-0.5,1.2-0.6
			C15.9,13.5,16.7,14.2,17.7,14.6z"/>
		<path class="st1" d="M19.6,14.1c-0.3,0.2-0.7,0.3-1,0.4c-1.1-0.3-2.1-1-2.7-1.9c1.1-0.2,2.3,0,3.3,0.6
			C19.4,13.4,19.5,13.7,19.6,14.1L19.6,14.1z"/>
		<path class="st1" d="M12.2,18.7c-0.1,0-0.1-0.1-0.2-0.2c-0.9-0.9-1.3-2.1-1.4-3.3c0.5,0.1,0.9,0.2,1.3,0.4
			C11.7,16.7,11.8,17.7,12.2,18.7L12.2,18.7z"/>
		<path class="st1" d="M14.3,18.7c-0.1,0.4-0.2,0.7-0.4,1c-0.3-0.1-0.7-0.3-1-0.4l0,0c-0.6-1-0.8-2.2-0.5-3.3
			C13.4,16.6,14,17.5,14.3,18.7L14.3,18.7z"/>
		<path class="st1" d="M11.2,13c0.6,0.2,1.1,0.5,1.6,0.9c-0.3,0.4-0.6,0.9-0.7,1.3c-0.4-0.2-0.9-0.4-1.4-0.4
			C10.8,14.2,10.9,13.6,11.2,13z"/>
		<path class="st1" d="M13.6,13.1c-0.1,0.1-0.2,0.2-0.3,0.2c-0.1,0.1-0.1,0.1-0.2,0.2c-0.5-0.4-1-0.7-1.6-0.9
			c0.1-0.2,0.3-0.4,0.5-0.6l0,0c0.2-0.2,0.4-0.4,0.6-0.5C12.9,12.1,13.2,12.6,13.6,13.1L13.6,13.1z"/>
		<path class="st1" d="M15.2,12.2c-0.5,0.2-0.9,0.4-1.3,0.7c-0.4-0.5-0.7-1-0.8-1.6c0.6-0.3,1.1-0.5,1.7-0.5
			C14.8,11.3,15,11.8,15.2,12.2z"/>
		<path class="st1" d="M18.6,12.3c-0.9-0.4-2-0.5-3-0.3c-0.2-0.4-0.3-0.8-0.4-1.3c1.2,0,2.3,0.5,3.2,1.4
			C18.5,12.2,18.6,12.3,18.6,12.3z"/>
		<path class="st1" d="M14.5,17.5c0,0.1,0,0.1,0,0.2c-0.4-0.9-1-1.7-1.9-2.3c0.1-0.4,0.4-0.8,0.6-1.2C14,15.1,14.5,16.2,14.5,17.5
			L14.5,17.5z"/>
		<path class="st1" d="M17.7,14.6c-0.1,0-0.1,0-0.2,0c-1.3,0-2.4-0.5-3.2-1.4c0.4-0.3,0.8-0.5,1.2-0.6
			C15.9,13.5,16.7,14.2,17.7,14.6z"/>
		<path class="st1" d="M19.6,14.1c-0.3,0.2-0.7,0.3-1,0.4c-1.1-0.3-2.1-1-2.7-1.9c1.1-0.2,2.3,0,3.3,0.6
			C19.4,13.4,19.5,13.7,19.6,14.1L19.6,14.1z"/>
		<path class="st1" d="M7.5,15.9c0.2,1.1,0,2.3-0.6,3.3l0,0c-0.3,0.2-0.7,0.3-1,0.4c-0.2-0.3-0.3-0.7-0.4-1
			C5.9,17.5,6.6,16.5,7.5,15.9L7.5,15.9z"/>
		<path class="st1" d="M7.9,15.6c0.4-0.2,0.8-0.3,1.3-0.4c0,1.2-0.5,2.3-1.4,3.2c-0.1,0-0.1,0.1-0.2,0.2C8.1,17.7,8.2,16.6,7.9,15.6
			z"/>
		<path class="st1" d="M12.2,18.7c-0.1,0-0.1-0.1-0.2-0.2c-0.9-0.9-1.3-2.1-1.4-3.3c0.5,0.1,0.9,0.2,1.3,0.4
			C11.7,16.7,11.8,17.7,12.2,18.7L12.2,18.7z"/>
		<path class="st1" d="M14.3,18.7c-0.1,0.4-0.2,0.7-0.4,1c-0.3-0.1-0.7-0.3-1-0.4l0,0c-0.6-1-0.8-2.2-0.5-3.3
			C13.4,16.6,14,17.5,14.3,18.7L14.3,18.7z"/>
		<path class="st1" d="M6.8,14.2C7,14.6,7.2,15,7.4,15.4c-0.9,0.5-1.6,1.3-2,2.2c0-0.1,0-0.1,0-0.2C5.4,16.2,5.9,15,6.8,14.2
			L6.8,14.2z"/>
		<path class="st1" d="M8.7,13c0.3,0.6,0.5,1.1,0.5,1.7c-0.5,0.1-1,0.2-1.4,0.4c-0.2-0.5-0.4-0.9-0.7-1.3C7.6,13.5,8.1,13.2,8.7,13z
			"/>
		<path class="st1" d="M10.8,12.9c-0.3,0.6-0.5,1.2-0.5,1.8c-0.1,0-0.2,0-0.4,0c-0.1,0-0.2,0-0.3,0c-0.1-0.6-0.2-1.2-0.5-1.8
			c0.2-0.1,0.5-0.1,0.8-0.1H10C10.3,12.8,10.6,12.9,10.8,12.9z"/>
		<path class="st1" d="M12.8,13.9c-0.3,0.4-0.6,0.9-0.7,1.3c-0.4-0.2-0.9-0.4-1.4-0.4c0.1-0.6,0.2-1.2,0.5-1.7
			C11.8,13.2,12.3,13.5,12.8,13.9z"/>
		<path class="st1" d="M14.5,17.5c0,0.1,0,0.1,0,0.2c-0.4-0.9-1-1.7-1.9-2.3c0.1-0.4,0.4-0.8,0.6-1.2C14,15.1,14.5,16.2,14.5,17.5
			L14.5,17.5z"/>
		<path class="st1" d="M1.3,14.3c-0.4-0.1-0.7-0.2-1-0.4c0.1-0.3,0.3-0.7,0.4-1l0,0c1-0.6,2.2-0.8,3.3-0.5
			C3.5,13.4,2.5,14.1,1.3,14.3L1.3,14.3z"/>
		<path class="st1" d="M5.8,13.2c-0.8,0.8-2,1.3-3.3,1.3c-0.1,0-0.2,0-0.2,0c1-0.4,1.7-1.1,2.3-1.9C5,12.7,5.4,12.9,5.8,13.2
			L5.8,13.2z"/>
		<path class="st1" d="M4.8,10.7c-0.1,0.5-0.2,0.9-0.4,1.3c-1-0.3-2-0.2-3,0.2c0-0.1,0.1-0.1,0.2-0.2C2.4,11.1,3.6,10.7,4.8,10.7
			L4.8,10.7z"/>
		<path class="st1" d="M7,11.2c-0.2,0.6-0.5,1.1-0.9,1.6c-0.4-0.3-0.8-0.6-1.3-0.7c0.2-0.4,0.4-0.9,0.4-1.4
			C5.8,10.7,6.4,10.9,7,11.2L7,11.2z"/>
		<path class="st1" d="M6.8,14.2C7,14.6,7.2,15,7.4,15.4c-0.9,0.5-1.6,1.3-2,2.2c0-0.1,0-0.1,0-0.2C5.4,16.2,5.9,15,6.8,14.2
			L6.8,14.2z"/>
		<path class="st1" d="M8,12c0.2,0.2,0.4,0.4,0.5,0.6c-0.6,0.2-1.2,0.5-1.6,0.9c-0.1-0.1-0.2-0.2-0.2-0.3c-0.1-0.1-0.1-0.1-0.2-0.2
			c0.4-0.5,0.7-1,0.9-1.6C7.6,11.6,7.8,11.8,8,12L8,12L8,12z"/>
		<path class="st1" d="M9.2,14.8c-0.5,0.1-1,0.2-1.4,0.4c-0.2-0.5-0.4-0.9-0.7-1.3c0.5-0.4,1-0.7,1.6-0.8C9,13.6,9.2,14.2,9.2,14.8z
			"/>
		<path class="st1" d="M7.5,15.9c0.2,1.1,0,2.3-0.6,3.3l0,0c-0.3,0.2-0.7,0.3-1,0.4c-0.2-0.3-0.3-0.7-0.4-1
			C5.9,17.5,6.6,16.5,7.5,15.9L7.5,15.9z"/>
		<path class="st1" d="M7.9,15.6c0.4-0.2,0.8-0.3,1.3-0.4c0,1.2-0.5,2.3-1.4,3.2c-0.1,0-0.1,0.1-0.2,0.2C8.1,17.7,8.2,16.6,7.9,15.6
			z"/>
		<circle class="st1" cx="10" cy="1.1" r="1.1"/>
		<circle class="st1" cx="16.3" cy="3.8" r="1.1"/>
		<circle class="st1" cx="18.9" cy="10" r="1.1"/>
		<circle class="st1" cx="16.2" cy="16.3" r="1.1"/>
		<circle class="st1" cx="10" cy="18.9" r="1.1"/>
		<circle class="st1" cx="3.7" cy="16.2" r="1.1"/>
		<circle class="st1" cx="1.1" cy="10" r="1.1"/>
		<circle class="st1" cx="3.8" cy="3.7" r="1.1"/>
	</g>
</g>
<g>
	<path class="st2" d="M30,8.8c0-4.5,0-9,0-13.5c0-0.3,0.1-0.4,0.4-0.4c21.6,0,43.1,0,64.7,0c0.3,0,0.4,0.1,0.4,0.4
		c0,9.4,0,18.8,0,28.2c0,0.3-0.1,0.4-0.4,0.4c-21.6,0-43.1,0-64.7,0c-0.3,0-0.4-0.1-0.4-0.4c0-4.6,0-9.1,0-13.7
		c0.1,0.1,0.1,0.2,0.2,0.3c0.4,0.6,1.2,0.9,1.8,0.6c0.7-0.3,1-1,0.9-1.7c-0.2-0.7-0.8-1.2-1.5-1.2C30.7,7.8,30.3,8.3,30,8.8z
		 M67.2,16.2C67.2,16.2,67.1,16.2,67.2,16.2c0-0.7,0-1.3,0-2c0-0.7,0-1.4-0.1-2.1c-0.1-1.3,0.1-1.2-1.3-1c-0.3,0-0.5,0.2-0.5,0.5
		c0,1.3-0.2,2.7,0,4c0,0.2-0.1,0.4-0.3,0.3c-0.5,0-1,0-1.4,0c-0.3,0-0.4-0.1-0.4-0.4c-0.1-1.1-0.4-2.2-0.3-3.3
		c0.1-1.2,0-1.2-1.1-1.2c-0.1,0-0.1,0-0.2,0c-0.7-0.1-0.8,0-0.7,0.8c0.2,1.6,0.3,3.2,0.5,4.8c0.1,1.3,0.3,2.7,0.2,4
		c0,0.3,0,0.5,0.3,0.5c0.5,0,1.1,0,1.6-0.1c0.2,0,0.3-0.1,0.2-0.3c-0.4-1,0-2.1-0.3-3.2c-0.1-0.3,0-0.4,0.3-0.3
		c0.5,0,0.9,0.1,1.4,0.1c0.4,0,0.5,0.2,0.6,0.6c0.1,0.9,0.1,1.9,0.2,2.8c0,0.2,0,0.3,0.2,0.4c0.4,0,0.8,0.1,1.2,0
		c0.4-0.1,0.6-0.3,0.5-0.7C67.3,18.9,67.3,17.5,67.2,16.2z M63.6,3.8c0,0,0.1,0,0.1,0c0.3,0.9,0.7,1.8,1,2.8c0.3,1,0.4,1,1.4,0.8
		c0.1,0,0.1,0,0.2,0c0.4,0,0.5-0.2,0.5-0.5c0.1-1.4,0.3-2.8,0.5-4.3c0.2-1.5,0.3-3.1,0.5-4.6c0-0.2,0.1-0.5,0-0.5
		c-0.3-0.2-0.7,0-1.1,0c-0.3,0-0.3,0.3-0.3,0.4c-0.1,0.7-0.2,1.4-0.3,2c-0.2,1.5-0.4,3.1-0.5,4.6c-0.4-0.7-0.6-1.5-0.9-2.3
		c-0.3-1.1-0.3-1.1-1.4-0.9c-0.3,0-0.4,0.2-0.4,0.5c0,0.7-0.1,1.3-0.3,2c-0.2-0.1-0.1-0.2-0.2-0.3c-0.1-1.8-0.3-3.7-0.4-5.5
		c0-0.2,0-0.4-0.2-0.5c-0.4-0.2-0.7-0.1-1.1,0c-0.3,0.1-0.3,0.4-0.3,0.6c0,0.3,0.1,0.6,0.1,0.9C60.6,1.6,61,4.3,61.3,7
		c0,0.3,0.1,0.5,0.4,0.5c0.9,0.1,1.3-0.1,1.4-1C63.3,5.6,63.4,4.7,63.6,3.8z M39.5,10.2c-0.1,0.3,0,0.5,0.2,0.6
		c0.5,0.4,1,0.8,1.4,1.4c0.1,0.2,0.3,0.3,0.5,0.2c0.7-0.1,1.4-0.1,2.1,0c0.2,0,0.4,0,0.5-0.2c0.4-0.6,0.9-1.1,1.5-1.5
		c0.2-0.1,0.3-0.2,0.2-0.4c-0.1-0.7-0.1-1.4,0-2.2c0-0.2,0-0.4-0.2-0.5c-0.6-0.4-1.1-0.9-1.5-1.5C44.1,6.1,44,6,43.8,6.1
		c-0.7,0.1-1.4,0.1-2.1,0c-0.3,0-0.4,0-0.5,0.2c-0.4,0.5-0.8,1-1.4,1.4c-0.2,0.2-0.3,0.3-0.3,0.6C39.6,8.9,39.7,9.6,39.5,10.2z
		 M93.9,17.6c0,0-0.1,0-0.1,0c0-1.1,0-2.3,0-3.4c0-0.3-0.1-0.4-0.5-0.4c-0.3,0-0.6,0-0.6,0.5c0,0.9,0,1.8,0,2.7
		c0,0.3-0.1,0.4-0.3,0.4c-0.2,0-0.4,0-0.5,0c-0.3,0.1-0.4-0.1-0.4-0.4c-0.1-0.9-0.3-1.8-0.2-2.7c0-0.7-0.5-0.4-0.8-0.5
		c-0.4-0.1-0.5,0.2-0.4,0.5c0.1,2.2,0.5,4.3,0.4,6.5c0,0.2,0.1,0.4,0.3,0.3c0.3,0,0.5-0.1,0.8-0.1c0.1,0,0.2-0.1,0.2-0.2
		c-0.2-0.6-0.1-1.2-0.1-1.8c-0.1-0.8-0.1-0.8,0.7-0.8c0.4,0,0.5,0.1,0.5,0.5c0,0.6,0.1,1.2,0.1,1.7c0,0.5,0.3,0.5,0.6,0.5
		c0.4,0,0.6-0.2,0.5-0.6C93.9,19.5,93.9,18.5,93.9,17.6z M93.4,3.9C93.4,3.9,93.5,3.9,93.4,3.9c0-1.1-0.1-2.3-0.1-3.4
		c0-0.3-0.1-0.5-0.4-0.4c-0.3,0.1-0.6,0-0.6,0.4c0,0.8,0,1.6,0,2.4c0,0.7,0,0.7-0.7,0.7c-0.5,0-0.5-0.2-0.6-0.6
		c-0.1-0.9-0.2-1.7-0.2-2.6c0-0.6-0.5-0.3-0.8-0.4c-0.3-0.1-0.5,0.1-0.4,0.4c0.1,0.9,0.1,1.7,0.2,2.6c0.1,1.2,0.2,2.4,0.2,3.5
		c0,0.9,0,1,0.9,0.8c0.1,0,0.1,0,0.2,0c0.1,0,0.2-0.1,0.1-0.2C91,6.6,91.1,6,91.1,5.5C91,4.5,91,4.6,91.9,4.6c0.3,0,0.4,0.1,0.4,0.4
		c0,0.6,0.1,1.2,0.1,1.8c0,0.5,0.2,0.6,0.6,0.6c0.4,0,0.6-0.2,0.5-0.6C93.5,5.8,93.5,4.8,93.4,3.9z M77.3,18.5
		c0.3,0.1,0.7-0.3,0.8,0.2c0.2,0.7,0.6,1.3,0.7,2c0.1,0.8,0.7,0.3,1,0.3c0.4,0,0.2-0.3,0.2-0.6c-0.1-0.6-0.6-1.2-0.6-1.8
		c-0.2-1.4-0.7-2.7-1.1-4c-0.4-1.2-0.1-1-1.5-0.9c-0.2,0-0.3,0.1-0.3,0.3c-0.1,0.8-0.4,1.6-0.5,2.4c0,0.4-0.1,0.8-0.2,1.2
		c-0.3,1-0.5,2.1-0.7,3.1c0,0.2-0.1,0.5,0.2,0.4c0.3,0,0.8,0.3,0.9-0.3c0.1-0.6,0.2-1.1,0.3-1.7C76.5,18.7,76.7,18.3,77.3,18.5z
		 M76.8,0.1C76.5,0.2,76,0,76,0.5c-0.1,0.9-0.4,1.7-0.5,2.6c-0.2,1.2-0.6,2.5-0.8,3.7c-0.1,0.2-0.3,0.6,0.1,0.7c0.5,0.2,0.9,0,1-0.5
		C75.8,6.7,75.9,6.3,76,6c0.2-1.1,0.2-1.1,1.4-1.1c0.2,0,0.4,0,0.4,0.3c0.2,0.7,0.5,1.3,0.7,2c0.1,0.4,0.4,0.5,1,0.3
		c0.4-0.1,0.2-0.4,0.1-0.6C79.5,6.2,79,5.7,79,5c-0.2-1.5-0.8-2.9-1.2-4.3C77.6,0.2,77.4-0.1,76.8,0.1z M69.5,5.1
		c0,0.4,0.1,1,0.1,1.7c0,0.5,0.2,0.6,0.6,0.7c0.8,0,1.6,0.1,2.4,0c0.3,0,0.3-0.1,0.4-0.4c0-0.5-0.2-0.6-0.6-0.6
		c-1.5,0-1.5,0-1.5-1.5c0-0.5,0.1-0.8,0.7-0.7c0.2,0,0.5,0,0.7,0c0.3,0,0.4-0.1,0.5-0.4c0-0.3-0.1-0.4-0.4-0.4
		c-0.3,0-0.6-0.1-0.9-0.1c-0.3,0-0.4-0.1-0.4-0.4c-0.1-0.6,0-1.2,0-1.7C70.8,1,70.9,1,71.1,1c0.4,0,0.8,0,1.3,0
		c0.4,0,0.4-0.2,0.5-0.5c0-0.4-0.2-0.4-0.4-0.4c-0.8,0-1.7,0-2.5,0c-0.3,0-0.4,0.2-0.4,0.5C69.6,2,69.4,3.4,69.5,5.1z M71.5,13.7
		C71.5,13.7,71.5,13.7,71.5,13.7c-0.4,0-0.8,0-1.2,0c-0.3,0-0.5,0.1-0.5,0.5c0,0.5,0.1,1,0.1,1.5c0,1.6-0.1,3.2,0,4.8
		c0,0.4,0.2,0.6,0.6,0.6c0.8,0.1,1.6,0.1,2.4,0c0.3,0,0.3-0.1,0.4-0.4c0.1-0.6-0.3-0.6-0.7-0.6c-1.5,0-1.5,0-1.5-1.5
		c0-0.7,0-0.7,0.7-0.8c0.2,0,0.4,0,0.6,0c0.4,0,0.4-0.2,0.5-0.5c0-0.5-0.4-0.3-0.6-0.4c-0.3-0.1-0.8,0.2-1-0.2
		c-0.2-0.3-0.1-0.8-0.1-1.1c0-0.2,0-0.5,0-0.7c0-0.2,0.1-0.3,0.3-0.3c0.4,0,0.8,0,1.2,0c0.4,0,0.6-0.1,0.6-0.5
		c0-0.5-0.3-0.4-0.5-0.4C72.3,13.7,71.9,13.7,71.5,13.7z M85.7,13.8C85.7,13.8,85.7,13.8,85.7,13.8c-0.2,0-0.3,0-0.5,0
		c-0.7-0.1-0.7-0.1-0.7,0.6c0,0.3,0.2,0.4,0.5,0.4c0.8,0,0.8,0.1,0.9,0.9c0.1,1.6,0.3,3.3,0.4,4.9c0,0.3,0.1,0.6,0.5,0.5
		c0.4-0.1,0.7,0,0.7-0.6c-0.1-1.6-0.2-3.1-0.3-4.7C87,15,87,15,87.9,14.8c0.1,0,0.1,0,0.2,0c0.4,0,0.4-0.3,0.3-0.5
		c0-0.3,0-0.6-0.4-0.5C87.2,13.8,86.4,13.8,85.7,13.8z M86.6,1.3c0.3-0.1,0.6-0.1,0.9-0.1c0.4,0,0.4-0.2,0.4-0.5
		c0-0.3,0-0.6-0.5-0.6c-1,0-2,0.2-3.1,0.1c-0.1,0-0.2,0-0.3,0.2c-0.2,0.5,0.1,0.9,0.6,0.9c0.6,0,0.7,0.2,0.8,0.8
		c0.1,1.7,0.3,3.3,0.4,5c0,0.2,0,0.4,0.2,0.5c0.4,0.2,1-0.1,1-0.6C86.9,5,86.8,3.1,86.6,1.3z M82.4,7.5c0.2,0,0.6,0,0.9-0.1
		c0.6-0.1,0.3-0.5,0.3-0.8c0.1-0.4-0.2-0.3-0.5-0.3c-0.7,0-0.7,0-0.7-0.7c0-1.7,0.1-3.5,0.2-5.2c0-0.1,0.1-0.3-0.1-0.4
		c-0.4-0.1-0.8-0.1-1.1,0c-0.3,0.1-0.2,0.5-0.2,0.7c-0.1,1.9,0,3.8,0,5.8C81.3,7.5,81.3,7.5,82.4,7.5z M82.8,21.2
		c0.2,0,0.6,0,0.9-0.1c0.6,0,0.3-0.5,0.3-0.8c0.1-0.4-0.2-0.3-0.4-0.3c-0.8,0-0.8,0-0.8-0.7c0-1.7,0.1-3.5,0.2-5.2
		c0-0.1,0.1-0.3-0.1-0.4c-0.4-0.1-0.8-0.1-1.1,0c-0.2,0.1-0.2,0.4-0.2,0.7c-0.1,2,0,3.9,0,5.9C81.7,21.1,81.7,21.1,82.8,21.2z
		 M35.3,6.2c-0.9-1.3-1.9-2.1-3.3-2.5c-0.6-0.2-1,0.2-1.5,0.4c-0.1,0-0.1,0.2-0.1,0.2c0.2,0.5,0.3,1.1,0.8,1.3
		C32.4,6.3,33.8,6.5,35.3,6.2z M33.9,12.1c-1,0-1.9,0.2-2.8,0.7c-0.5,0.3-0.6,0.9-0.8,1.4c0,0,0,0.1,0.1,0.1c0.5,0.2,1,0.6,1.7,0.4
		c0.9-0.3,1.6-0.7,2.3-1.3c0.3-0.3,0.8-0.7,0.7-1.1C35,12.1,34.3,12.1,33.9,12.1z M51.5,6.4c0.9-0.1,1.8-0.2,2.7-0.6
		c0.6-0.3,0.7-0.9,0.9-1.4c0-0.1,0-0.1-0.1-0.2c-0.5-0.2-1-0.5-1.6-0.4c-1.2,0.4-2.1,1-2.9,1.9c-0.1,0.1-0.3,0.3-0.2,0.4
		c0.1,0.2,0.3,0,0.4,0.1C51,6.4,51.2,6.5,51.5,6.4z M51.2,12.2c-0.2-0.1-0.4,0.2-0.7,0.1c-0.4,0-0.4,0.1-0.2,0.4
		c0.8,1,1.8,1.8,3,2.2c0.6,0.2,1.1-0.2,1.5-0.4c0.1,0,0.1-0.1,0.1-0.2c-0.3-0.5-0.3-1.1-0.9-1.4C53.2,12.5,52.3,12.4,51.2,12.2z
		 M45.6,18.1c0,0.9,0.2,1.9,0.7,2.7c0.3,0.6,0.9,0.6,1.4,0.8c0.1,0,0.2,0,0.2-0.1c0.2-0.5,0.6-0.9,0.4-1.6c-0.4-1.2-1.1-2.2-2.1-3
		c-0.2-0.2-0.4-0.4-0.4,0.2C45.6,17.4,45.6,17.8,45.6,18.1z M39.6,16.7c-1.2,0.9-2.1,1.9-2.5,3.3c-0.2,0.6,0.2,1,0.4,1.5
		c0,0,0.1,0.1,0.2,0.1c0.5-0.2,1.1-0.2,1.3-0.7C39.6,19.5,39.8,18.2,39.6,16.7z M39.7,0.6c0-1-0.2-1.8-0.6-2.7
		c-0.3-0.6-0.9-0.7-1.4-0.9c-0.1,0-0.2,0-0.2,0.1c-0.2,0.5-0.6,1-0.3,1.7c0.4,0.8,0.8,1.7,1.5,2.3c0.3,0.3,0.6,0.8,0.9,0.6
		C39.9,1.6,39.7,1,39.7,0.6z M45.8,1.8c1.1-0.5,2.4-2.3,2.5-3.4c0.1-0.5-0.2-0.9-0.4-1.3c0,0-0.1-0.1-0.1-0.1
		c-0.5,0.2-1.1,0.3-1.3,0.8C45.8-0.9,45.6,0.4,45.8,1.8z M44.2-2c0-0.8-0.6-1.5-1.5-1.5c-0.8,0-1.5,0.6-1.5,1.5
		c0,0.8,0.7,1.5,1.5,1.5C43.5-0.5,44.2-1.2,44.2-2z M36.2,1.3c0-0.8-0.6-1.5-1.5-1.5c-0.9,0-1.5,0.6-1.5,1.4c0,0.8,0.6,1.5,1.5,1.5
		C35.6,2.8,36.2,2.1,36.2,1.3z M34.7,15.7c-0.8,0-1.5,0.6-1.5,1.5c0,0.8,0.7,1.5,1.5,1.5c0.8,0,1.5-0.7,1.5-1.5
		C36.2,16.4,35.6,15.7,34.7,15.7z M50.7,2.8c0.8,0,1.5-0.7,1.5-1.5c0-0.8-0.6-1.5-1.5-1.5c-0.8,0-1.5,0.7-1.5,1.5
		C49.2,2.1,49.9,2.8,50.7,2.8z M55.5,9.3c0-0.8-0.6-1.5-1.5-1.5c-0.8,0-1.5,0.6-1.5,1.4c0,0.8,0.7,1.5,1.5,1.5
		C54.8,10.8,55.5,10.1,55.5,9.3z M41.2,20.5c0,0.8,0.7,1.5,1.5,1.5c0.8,0,1.5-0.7,1.5-1.5c0-0.8-0.7-1.5-1.5-1.5
		C41.9,19,41.2,19.7,41.2,20.5z M52.2,17.2c0-0.8-0.7-1.5-1.5-1.5c-0.8,0-1.5,0.7-1.5,1.5c0,0.8,0.7,1.5,1.5,1.5
		C51.5,18.7,52.2,18,52.2,17.2z M48.5,8.4c0.1,0,0.3,0.1,0.4-0.1c0.1-0.6,0.3-1.1,0.5-1.7C49,6.4,48.6,6.2,48.2,6
		c-0.1,0-0.1-0.1-0.2-0.2c-0.2-0.2-0.4-0.1-0.5,0.1c-1.2,1.9-1.4,1.9,0.8,2.4C48.4,8.4,48.4,8.4,48.5,8.4z M38.9,7.5
		c-0.2-0.5-0.4-1-0.8-1.5c-0.2-0.3-0.4-0.5-0.7-0.2c-0.3,0.2-0.6,0.4-1,0.5c-0.3,0.1-0.4,0.2-0.2,0.5c0.2,0.4,0.3,0.8,0.3,1.3
		c0,0.2,0.1,0.3,0.3,0.3c0.6-0.1,1.2-0.3,1.8-0.5C38.7,7.8,38.9,7.8,38.9,7.5z M43.6,15c0,0.3,0,0.4,0.2,0.5c0.5,0,0.9,0.2,1.3,0.4
		c0.2,0.1,0.3,0.1,0.4-0.1c0.1-0.4,0.4-0.8,0.7-1.2c0.2-0.2,0.1-0.4-0.1-0.5c-0.5-0.3-1-0.6-1.6-0.8c-0.2-0.1-0.3,0-0.4,0.1
		C43.8,13.9,43.7,14.5,43.6,15z M36.9,10.1c-0.2,0-0.4,0-0.4,0.3c-0.1,0.4-0.2,0.9-0.4,1.3C36,11.9,36,12,36.3,12.1
		c0.4,0.2,0.8,0.4,1.2,0.7c0.2,0.2,0.4,0.1,0.5-0.1c0.3-0.5,0.6-1,0.8-1.6c0.1-0.2,0.1-0.3-0.1-0.4C38.1,10.4,37.5,10.2,36.9,10.1z
		 M49.3,11.9c-0.2-0.4-0.4-0.9-0.4-1.3c0-0.3-0.2-0.3-0.4-0.3c-0.6,0.1-1.1,0.2-1.7,0.5c-0.3,0.1-0.3,0.2-0.2,0.5
		c0.2,0.5,0.4,1,0.7,1.4c0.2,0.3,0.3,0.4,0.6,0.1c0.3-0.3,0.7-0.4,1.1-0.6C49.2,12.1,49.3,12.1,49.3,11.9z M41.8,3.4
		c0-0.1,0-0.2-0.2-0.2c-0.5-0.1-1-0.2-1.5-0.4c-0.2-0.1-0.3-0.1-0.3,0.1c-0.2,0.4-0.4,0.9-0.7,1.2C39,4.3,39,4.4,39.2,4.5
		c0.5,0.4,1.1,0.7,1.7,0.9c0.2,0.1,0.3,0,0.4-0.1C41.6,4.7,41.7,4,41.8,3.4z M41.8,15c-0.1-0.6-0.2-1.1-0.5-1.7
		c-0.1-0.3-0.3-0.3-0.6-0.2c-0.4,0.2-0.8,0.4-1.2,0.6c-0.4,0.2-0.7,0.5-0.2,0.9c0.2,0.2,0.3,0.5,0.4,0.8c0.1,0.4,0.3,0.4,0.6,0.3
		c0.4-0.2,0.7-0.3,1.1-0.3C41.7,15.4,41.8,15.3,41.8,15z M43.7,3.5c0.1,0.6,0.3,1.2,0.5,1.8c0.1,0.2,0.2,0.2,0.3,0.1
		c0.6-0.2,1.1-0.5,1.7-0.9c0.2-0.1,0.2-0.2,0.1-0.4c-0.3-0.5-0.4-1.2-0.8-1.4c-0.3-0.2-1,0.3-1.5,0.4C43.7,3.2,43.6,3.3,43.7,3.5z
		 M39.7,20.3c1.2-1,1.9-2.3,2-3.8c0.1-0.6,0-0.7-0.6-0.5c-0.4,0.1-0.7,0.2-1,0.4c-0.3,0.2,0,0.5,0,0.8
		C40.2,18.3,40.1,19.3,39.7,20.3z M31.7,6.4c1,1.2,2.4,1.8,3.9,2c0.3,0,0.6,0.1,0.4-0.4c-0.1-0.3-0.2-0.7-0.3-1
		c-0.1-0.2-0.2-0.3-0.4-0.3c-0.3,0.1-0.6,0.1-0.9,0.1C33.4,6.9,32.6,6.7,31.7,6.4z M32.8,15c1.4,0.1,2.5-0.2,3.5-0.8
		c0.4-0.2,1.1-0.5,1-0.9c-0.1-0.5-0.8-0.6-1.3-0.8c-0.1-0.1-0.2,0-0.3,0.1C35,13.6,34.1,14.4,32.8,15z M31.7,12
		c0.2,0,0.3-0.1,0.5-0.1c0.8-0.3,1.6-0.4,2.4-0.2c1,0.2,1,0.2,1.3-0.8c0,0,0,0,0-0.1c0.2-0.8,0.2-0.8-0.6-0.7c-0.1,0-0.1,0-0.2,0
		C33.7,10.4,32.6,11,31.7,12z M36.8,19c0.5-0.9,1.1-1.7,1.9-2.3c0.8-0.6,0.8-0.6,0.3-1.4c-0.1-0.1-0.2-0.3-0.2-0.4
		c-0.1-0.3-0.3-0.2-0.5,0c-0.3,0.3-0.6,0.7-0.8,1.2C37,16.9,36.8,17.9,36.8,19z M32.9,3.5c0.5,0.3,0.9,0.5,1.3,0.8
		c0.4,0.3,0.7,0.6,1,1C35.9,6.1,36,6.1,37,5.5c0,0,0.1,0,0.1-0.1c0.4-0.2,0.4-0.3,0-0.6C35.9,3.9,34.6,3.3,32.9,3.5z M38.6,4
		c0.3-0.4,0.5-0.8,0.7-1.2c0.2-0.3,0.1-0.5-0.2-0.7c-0.9-0.6-1.5-1.3-2-2.3c-0.1-0.1,0-0.3-0.3-0.3C36.8,1.2,37.5,2.9,38.6,4z
		 M48.4,19.1c0.1-1.6-0.4-3.1-1.4-4.3c-0.2-0.2-0.2-0.2-0.4,0c-0.2,0.4-0.4,0.8-0.6,1.2c-0.1,0.2,0,0.3,0.1,0.3
		C47.1,17,47.9,17.9,48.4,19.1z M39.9-1.7c0,0.1,0,0.1,0,0.1c0,0.1,0.1,0.2,0.1,0.2c0.3,0.9,0.5,1.8,0.3,2.7
		c-0.1,0.9-0.2,0.9,0.7,1.2c0.2,0.1,0.3,0.1,0.5,0.1c0.3,0.1,0.5,0,0.4-0.4C41.6,0.7,41.1-0.7,39.9-1.7z M46.8,4
		c1.1-0.8,2-3.4,1.7-4.5c-0.4,0.9-0.9,1.7-1.6,2.2c-0.9,0.8-0.9,0.8-0.3,1.8C46.6,3.7,46.7,3.8,46.8,4z M45.5,20.4
		c0-0.2,0-0.3,0-0.3c-0.3-0.9-0.5-1.8-0.3-2.8c0.2-0.9,0.1-0.9-0.7-1.2c0,0-0.1,0-0.2,0c-0.7-0.2-0.7-0.2-0.7,0.5
		C43.7,18,44.3,19.2,45.5,20.4z M53.8,6.5c-0.2,0-0.2,0-0.2,0c-1.1,0.4-2.2,0.6-3.4,0.2c-0.2-0.1-0.3,0-0.4,0.2
		c-0.2,0.5-0.6,1-0.3,1.4c0.2,0.3,0.9,0.1,1.3,0C51.9,8,52.9,7.5,53.8,6.5z M52.5,3.6c-1.6-0.1-3,0.4-4.2,1.4
		c-0.2,0.2-0.2,0.3,0,0.5c0.4,0.2,0.8,0.4,1.2,0.6c0.1,0,0.2,0,0.3-0.1C50.4,4.9,51.4,4.2,52.5,3.6z M52.5,15.1
		c-1-0.5-1.7-1-2.3-1.7c-0.7-0.9-0.7-0.9-1.7-0.3c-0.1,0-0.1,0.1-0.2,0.1c-0.3,0.2-0.4,0.3-0.1,0.6C49.5,14.7,50.8,15.2,52.5,15.1z
		 M53.7,12.2c-1.1-1.3-2.5-1.9-4.1-2.1c-0.2,0-0.2,0.1-0.2,0.3c0,0.5,0.2,0.9,0.4,1.3c0.1,0.2,0.2,0.2,0.4,0.2
		c0.4-0.1,0.9-0.2,1.3-0.2C52.2,11.8,53,11.9,53.7,12.2z M45.7-1.7c-1.2,1.1-1.9,2.4-2,4c0,0.1-0.1,0.2,0.1,0.3
		c0.2,0.1,1.5-0.4,1.6-0.5c0-0.1,0-0.2,0-0.3c-0.1-0.2-0.1-0.3-0.1-0.5C45.2,0.3,45.3-0.7,45.7-1.7z M39.4,7.4
		C39.4,7.4,39.5,7.4,39.4,7.4c0.6-0.4,1-0.8,1.4-1.3c0.1-0.2,0.1-0.2-0.1-0.3c-0.6-0.2-1.2-0.5-1.7-0.9c-0.2-0.2-0.4,0-0.5,0.1
		c-0.1,0.2-0.5,0.2-0.2,0.5c0.4,0.5,0.7,1.1,1,1.7C39.2,7.3,39.3,7.4,39.4,7.4z M39.3,11.1c-0.3,0.7-0.6,1.4-1.1,2
		c-0.2,0.3,0.2,0.4,0.3,0.6c0.1,0.2,0.2,0.2,0.4,0c0.5-0.4,1-0.7,1.6-0.9c0.3-0.1,0.3-0.2,0.1-0.4C40.3,11.9,39.9,11.5,39.3,11.1z
		 M46.3,9.3c0,0.2,0,0.5,0,0.7c0,0.3,0.1,0.4,0.4,0.2c0.6-0.3,1.2-0.4,1.8-0.5c0.2,0,0.3-0.1,0.3-0.3c0-0.4,0-0.6-0.5-0.6
		c-0.3,0-0.6-0.1-0.9-0.2C46.3,8.2,46.3,8.2,46.3,9.3z M39.1,9.3c0-0.2,0-0.5,0-0.7c0-0.3-0.1-0.4-0.4-0.3c-0.5,0.3-1.1,0.4-1.7,0.5
		c-0.3,0-0.3,0.2-0.3,0.5c0,0.2,0,0.4,0.3,0.5c0.4,0,0.8,0.2,1.1,0.3C39.1,10.3,39.1,10.4,39.1,9.3z M42.7,12.9c-0.2,0-0.4,0-0.6,0
		c-0.3,0-0.4,0.1-0.3,0.4c0.2,0.5,0.4,1,0.5,1.5c0,0.4,0.2,0.5,0.6,0.5c0.4,0,0.4-0.3,0.4-0.5c0.1-0.3,0.1-0.6,0.2-0.9
		C43.8,12.9,43.8,12.9,42.7,12.9z M44.6,12.7c0.7,0.3,1.4,0.6,2,1c0.3,0.2,0.4-0.2,0.6-0.3c0.2-0.1,0.2-0.2,0.1-0.4
		c-0.4-0.5-0.7-1-0.9-1.6c-0.1-0.2-0.2-0.2-0.3-0.1C45.4,11.7,44.9,12.1,44.6,12.7z M46,7.4c0.2,0,0.2-0.2,0.2-0.3
		c0.2-0.5,0.4-1,0.8-1.4c0.2-0.3,0.2-0.4,0-0.7c-0.3-0.3-0.4-0.2-0.7,0c-0.2,0.2-0.5,0.3-0.8,0.5c-0.3,0.2-0.9,0.2-0.8,0.6
		c0,0.3,0.5,0.6,0.7,0.9c0.1,0.1,0.3,0.3,0.4,0.4C45.9,7.3,46,7.4,46,7.4z M41.6,5.6c0.8,0.1,1.4,0.2,2.2,0c-0.3-0.7-0.5-1.3-0.6-2
		c0-0.3-0.2-0.3-0.4-0.3c-0.2,0-0.5-0.2-0.5,0.2C42.2,4.2,42,4.9,41.6,5.6z"/>
	<path class="st3" d="M30,8.8c0.3-0.5,0.7-1,1.4-1c0.8,0,1.4,0.4,1.5,1.2c0.2,0.7-0.2,1.4-0.9,1.7c-0.7,0.3-1.4,0-1.8-0.6
		C30.1,9.9,30,9.8,30,9.7C30,9.4,30,9.1,30,8.8z"/>
	<path class="st4" d="M67.2,16.2c0.1,1.4,0.2,2.7,0.3,4.1c0,0.5-0.1,0.6-0.5,0.7c-0.4,0.1-0.8,0-1.2,0c-0.2,0-0.2-0.2-0.2-0.4
		c-0.1-0.9-0.2-1.9-0.2-2.8c0-0.4-0.1-0.6-0.6-0.6c-0.5,0-0.9,0-1.4-0.1c-0.3,0-0.4,0.1-0.3,0.3c0.3,1,0,2.2,0.3,3.2
		c0.1,0.2,0,0.3-0.2,0.3c-0.5,0.1-1.1,0.1-1.6,0.1c-0.3,0-0.4-0.2-0.3-0.5c0.1-1.3-0.1-2.7-0.2-4c-0.1-1.6-0.3-3.2-0.5-4.8
		c-0.1-0.8,0-0.8,0.7-0.8c0.1,0,0.1,0,0.2,0c1.1,0.1,1.2,0.1,1.1,1.2c-0.1,1.1,0.2,2.2,0.3,3.3c0,0.3,0.1,0.4,0.4,0.4
		c0.5,0,1,0,1.4,0c0.3,0,0.3-0.1,0.3-0.3c-0.1-1.3,0-2.7,0-4c0-0.4,0.1-0.5,0.5-0.5c1.4-0.1,1.2-0.2,1.3,1c0.1,0.7,0.1,1.4,0.1,2.1
		C67.2,14.8,67.1,15.5,67.2,16.2C67.1,16.2,67.2,16.2,67.2,16.2z"/>
	<path class="st5" d="M63.6,3.8c-0.1,0.9-0.3,1.8-0.4,2.7c-0.2,0.9-0.5,1.2-1.4,1c-0.3,0-0.4-0.2-0.4-0.5c-0.3-2.7-0.6-5.4-0.8-8.1
		c0-0.3-0.1-0.6-0.1-0.9c0-0.2,0-0.5,0.3-0.6c0.4-0.1,0.7-0.2,1.1,0c0.2,0.1,0.1,0.3,0.2,0.5c0.1,1.8,0.3,3.7,0.4,5.5
		c0,0.1,0,0.2,0.2,0.3c0.1-0.7,0.3-1.3,0.3-2c0-0.3,0.1-0.4,0.4-0.5c1.1-0.2,1.1-0.2,1.4,0.9c0.2,0.8,0.5,1.5,0.9,2.3
		c0.2-1.5,0.4-3.1,0.5-4.6c0.1-0.7,0.2-1.4,0.3-2c0-0.2,0-0.4,0.3-0.4c0.4,0,0.8-0.2,1.1,0c0.2,0.1,0.1,0.4,0,0.5
		c-0.1,1.5-0.3,3.1-0.5,4.6c-0.1,1.4-0.3,2.8-0.5,4.3c0,0.3-0.1,0.5-0.5,0.5c-0.1,0-0.1,0-0.2,0c-1,0.1-1,0.1-1.4-0.8
		c-0.3-0.9-0.7-1.8-1-2.8C63.7,3.8,63.6,3.8,63.6,3.8z"/>
	<path class="st0" d="M39.5,10.2c0.1-0.6,0.1-1.3,0-1.9c-0.1-0.3,0-0.4,0.3-0.6c0.5-0.4,1-0.8,1.4-1.4c0.1-0.2,0.3-0.3,0.5-0.2
		c0.7,0.1,1.4,0.1,2.1,0c0.2,0,0.3,0,0.4,0.2c0.4,0.6,0.9,1.1,1.5,1.5c0.2,0.1,0.2,0.3,0.2,0.5c-0.1,0.7-0.1,1.4,0,2.2
		c0,0.2,0,0.3-0.2,0.4c-0.6,0.4-1.1,0.9-1.5,1.5c-0.1,0.2-0.3,0.3-0.5,0.2c-0.7-0.1-1.4-0.1-2.1,0c-0.2,0-0.4,0-0.5-0.2
		c-0.4-0.5-0.8-1-1.4-1.4C39.5,10.7,39.4,10.5,39.5,10.2z"/>
	<path class="st6" d="M93.9,17.6c0.1,1,0.1,1.9,0.2,2.9c0,0.4-0.1,0.6-0.5,0.6c-0.4,0-0.6,0-0.6-0.5c0-0.6-0.1-1.2-0.1-1.7
		c0-0.4-0.1-0.5-0.5-0.5c-0.8,0-0.8,0-0.7,0.8c0.1,0.6,0,1.2,0.1,1.8c0,0.1,0,0.2-0.2,0.2c-0.3,0-0.5,0.1-0.8,0.1
		c-0.2,0-0.4-0.1-0.3-0.3c0.1-2.2-0.3-4.4-0.4-6.5c0-0.3,0-0.6,0.4-0.5c0.3,0.1,0.8-0.2,0.8,0.5c-0.1,0.9,0.1,1.8,0.2,2.7
		c0,0.3,0.1,0.4,0.4,0.4c0.2,0,0.4,0,0.5,0c0.3,0,0.3-0.1,0.3-0.4c0-0.9,0-1.8,0-2.7c0-0.5,0.3-0.4,0.6-0.5c0.3,0,0.5,0.1,0.5,0.4
		c0,1.1,0,2.3,0,3.4C93.8,17.6,93.8,17.6,93.9,17.6z"/>
	<path class="st6" d="M93.4,3.9c0.1,1,0.1,1.9,0.2,2.9c0,0.4-0.1,0.6-0.5,0.6c-0.4,0-0.7-0.1-0.6-0.6c0-0.6-0.1-1.2-0.1-1.8
		c0-0.3-0.1-0.4-0.4-0.4C91,4.6,91,4.5,91.1,5.5c0,0.6,0,1.1,0.1,1.7c0,0.1,0,0.2-0.1,0.2c-0.1,0-0.1,0-0.2,0
		c-0.9,0.2-0.9,0.1-0.9-0.8c0-1.2-0.1-2.4-0.2-3.5c-0.1-0.9-0.1-1.7-0.2-2.6c0-0.3,0.1-0.5,0.4-0.4c0.3,0.1,0.8-0.2,0.8,0.4
		c0,0.9,0.1,1.8,0.2,2.6C91,3.5,91,3.7,91.5,3.7c0.7,0,0.7,0,0.7-0.7c0-0.8,0-1.6,0-2.4c0-0.5,0.3-0.4,0.6-0.4
		c0.3-0.1,0.4,0.1,0.4,0.4C93.4,1.6,93.4,2.7,93.4,3.9C93.5,3.9,93.4,3.9,93.4,3.9z"/>
	<path class="st5" d="M77.3,18.5c-0.6-0.2-0.8,0.2-0.9,0.7c-0.1,0.6-0.2,1.1-0.3,1.7c-0.1,0.6-0.6,0.3-0.9,0.3
		c-0.3,0-0.3-0.3-0.2-0.4c0.2-1,0.5-2.1,0.7-3.1c0.1-0.4,0.2-0.8,0.2-1.2c0.1-0.8,0.4-1.6,0.5-2.4c0-0.2,0.1-0.3,0.3-0.3
		c1.3-0.1,1.1-0.3,1.5,0.9c0.4,1.3,1,2.6,1.1,4c0.1,0.6,0.5,1.1,0.6,1.8c0,0.2,0.2,0.6-0.2,0.6c-0.3,0-0.9,0.5-1-0.3
		c-0.1-0.7-0.4-1.3-0.7-2C78,18.3,77.6,18.6,77.3,18.5z M77.4,15.7c0,0-0.1,0-0.1,0c-0.1,0.6-0.1,1.2-0.2,1.8c0,0.1,0,0.2,0.1,0.2
		c0.2,0,0.5,0,0.7-0.1c0.1,0,0-0.2,0-0.3C77.7,16.8,77.6,16.2,77.4,15.7z"/>
	<path class="st5" d="M76.8,0.1c0.6-0.2,0.8,0.1,0.9,0.6c0.4,1.4,1,2.8,1.2,4.3c0.1,0.6,0.5,1.1,0.6,1.8c0,0.2,0.3,0.5-0.1,0.6
		c-0.6,0.2-0.9,0-1-0.3c-0.2-0.7-0.5-1.3-0.7-2c-0.1-0.2-0.2-0.3-0.4-0.3c-1.1,0-1.1,0-1.4,1.1c-0.1,0.4-0.1,0.8-0.2,1.1
		c-0.1,0.4-0.4,0.6-1,0.5c-0.4-0.1-0.2-0.5-0.1-0.7c0.3-1.2,0.6-2.5,0.8-3.7c0.1-0.9,0.5-1.7,0.5-2.6C76,0,76.5,0.2,76.8,0.1z M77,2
		c0,0-0.1,0-0.1,0c-0.1,0.6-0.1,1.2-0.2,1.8c0,0.1,0,0.2,0.1,0.2c0.2,0,0.5,0,0.7-0.1c0.1,0,0-0.2,0-0.3C77.3,3.1,77.1,2.5,77,2z"/>
	<path class="st4" d="M69.5,5.1c0-1.7,0.1-3.1,0-4.6c0-0.3,0.1-0.5,0.4-0.5c0.8,0,1.7,0,2.5,0c0.3,0,0.5,0,0.4,0.4
		c0,0.3,0,0.5-0.5,0.5c-0.4,0-0.8,0-1.3,0c-0.2,0-0.3,0-0.3,0.2c0,0.6,0,1.2,0,1.7c0,0.3,0.1,0.4,0.4,0.4c0.3,0,0.6,0.1,0.9,0.1
		c0.3,0,0.4,0.2,0.4,0.4c0,0.3-0.1,0.5-0.5,0.4c-0.2,0-0.5,0-0.7,0c-0.6-0.1-0.7,0.2-0.7,0.7c0,1.5,0,1.5,1.5,1.5
		c0.4,0,0.7,0,0.6,0.6c0,0.3-0.1,0.4-0.4,0.4c-0.8,0.1-1.6,0-2.4,0c-0.4,0-0.6-0.2-0.6-0.7C69.6,6.1,69.5,5.5,69.5,5.1z"/>
	<path class="st4" d="M71.5,13.7c0.4,0,0.8,0,1.2,0c0.3,0,0.6-0.1,0.5,0.4c0,0.5-0.2,0.5-0.6,0.5c-0.4,0-0.8,0-1.2,0
		c-0.2,0-0.3,0.1-0.3,0.3c0,0.2,0,0.5,0,0.7c0,0.4-0.1,0.8,0.1,1.1c0.2,0.4,0.7,0.1,1,0.2c0.2,0.1,0.7-0.1,0.6,0.4
		c0,0.3-0.1,0.5-0.5,0.5c-0.2,0-0.4,0-0.6,0c-0.7,0-0.7,0-0.7,0.8c0,1.5,0,1.5,1.5,1.5c0.4,0,0.7,0,0.7,0.6c0,0.3-0.1,0.4-0.4,0.4
		c-0.8,0.1-1.6,0-2.4,0c-0.4,0-0.6-0.2-0.6-0.6c-0.1-1.6-0.1-3.2,0-4.8c0-0.5,0-1-0.1-1.5c0-0.4,0.1-0.5,0.5-0.5
		C70.7,13.7,71.1,13.7,71.5,13.7C71.5,13.7,71.5,13.7,71.5,13.7z"/>
	<path class="st6" d="M85.7,13.8c0.7,0,1.5,0,2.2-0.1c0.5,0,0.4,0.3,0.4,0.5c0,0.3,0.1,0.5-0.3,0.5c-0.1,0-0.1,0-0.2,0
		C87,15,87,15,87.1,15.9c0.1,1.6,0.2,3.1,0.3,4.7c0,0.5-0.3,0.5-0.7,0.6c-0.4,0.1-0.5-0.2-0.5-0.5c-0.1-1.6-0.3-3.3-0.4-4.9
		c-0.1-0.8-0.1-0.8-0.9-0.9c-0.3,0-0.4-0.1-0.5-0.4c0-0.7,0-0.7,0.7-0.6C85.4,13.8,85.5,13.8,85.7,13.8
		C85.7,13.8,85.7,13.8,85.7,13.8z"/>
	<path class="st6" d="M86.6,1.3C86.8,3.1,86.9,5,87,6.9c0,0.5-0.6,0.9-1,0.6c-0.2-0.1-0.1-0.3-0.2-0.5c-0.1-1.7-0.3-3.3-0.4-5
		c0-0.5-0.2-0.8-0.8-0.8c-0.5,0-0.7-0.4-0.6-0.9c0.1-0.2,0.2-0.2,0.3-0.2c1,0.1,2,0,3.1-0.1c0.5,0,0.4,0.3,0.5,0.6
		c0,0.3,0,0.5-0.4,0.5C87.2,1.1,86.9,1.2,86.6,1.3z"/>
	<path class="st7" d="M82.4,7.5c-1.1,0-1.1,0-1.1-1c0-1.9-0.1-3.8,0-5.8c0-0.3-0.1-0.6,0.2-0.7c0.3-0.1,0.7-0.1,1.1,0
		c0.2,0.1,0.1,0.2,0.1,0.4c-0.1,1.7-0.2,3.5-0.2,5.2c0,0.8,0,0.8,0.7,0.7c0.2,0,0.5,0,0.5,0.3c0,0.3,0.2,0.7-0.3,0.8
		C83,7.5,82.6,7.5,82.4,7.5z"/>
	<path class="st7" d="M82.8,21.2c-1.1,0-1.1,0-1.1-1c0-2-0.1-3.9,0-5.9c0-0.2-0.1-0.6,0.2-0.7c0.3-0.1,0.7-0.1,1.1,0
		c0.2,0.1,0.1,0.2,0.1,0.4c-0.1,1.7-0.2,3.5-0.2,5.2c0,0.8,0,0.8,0.8,0.7c0.2,0,0.5,0,0.4,0.3c0,0.3,0.2,0.7-0.3,0.8
		C83.4,21.1,83,21.1,82.8,21.2z"/>
	<path class="st8" d="M35.3,6.2c-1.5,0.3-2.9,0.1-4.1-0.6c-0.5-0.3-0.6-0.8-0.8-1.3c0-0.1,0-0.2,0.1-0.2c0.5-0.2,0.9-0.6,1.5-0.4
		C33.4,4.1,34.4,4.9,35.3,6.2z"/>
	<path class="st9" d="M33.9,12.1c0.4,0,1.1-0.1,1.2,0.2c0.1,0.4-0.4,0.8-0.7,1.1c-0.7,0.6-1.4,1.1-2.3,1.3c-0.6,0.2-1.2-0.1-1.7-0.4
		c0,0-0.1-0.1-0.1-0.1c0.2-0.5,0.3-1.1,0.8-1.4C32,12.4,32.9,12.1,33.9,12.1z"/>
	<path class="st9" d="M51.5,6.4c-0.3,0-0.5,0-0.8-0.1c-0.1,0-0.4,0.1-0.4-0.1c-0.1-0.2,0.1-0.3,0.2-0.4c0.8-0.9,1.7-1.6,2.9-1.9
		C54,3.7,54.5,4,55,4.2c0.1,0,0.1,0.1,0.1,0.2c-0.2,0.5-0.3,1.1-0.9,1.4C53.3,6.2,52.4,6.4,51.5,6.4z"/>
	<path class="st8" d="M51.2,12.2c1.1,0.1,2,0.3,2.9,0.7c0.6,0.3,0.6,0.9,0.9,1.4c0,0.1,0,0.2-0.1,0.2c-0.5,0.2-0.9,0.6-1.5,0.4
		c-1.2-0.4-2.2-1.1-3-2.2c-0.2-0.3-0.2-0.4,0.2-0.4C50.8,12.4,51.1,12.2,51.2,12.2z"/>
	<path class="st8" d="M45.6,18.1c0-0.3,0.1-0.6,0.1-0.9c0-0.5,0.2-0.3,0.4-0.2c1,0.8,1.7,1.7,2.1,3c0.2,0.6-0.2,1.1-0.4,1.6
		c0,0.1-0.1,0.1-0.2,0.1c-0.5-0.2-1.1-0.3-1.4-0.8C45.8,19.9,45.6,19,45.6,18.1z"/>
	<path class="st9" d="M39.6,16.7c0.2,1.5,0.1,2.8-0.6,4.1c-0.3,0.5-0.9,0.6-1.3,0.7c-0.1,0-0.2,0-0.2-0.1c-0.2-0.5-0.5-0.9-0.4-1.5
		C37.5,18.6,38.3,17.5,39.6,16.7z"/>
	<path class="st8" d="M39.7,0.6c0,0.4,0.1,1-0.2,1.1c-0.3,0.1-0.6-0.4-0.9-0.6c-0.7-0.6-1.1-1.4-1.5-2.3c-0.3-0.6,0.1-1.1,0.3-1.7
		C37.5-3,37.7-3,37.7-3c0.5,0.2,1.1,0.3,1.4,0.9C39.5-1.2,39.8-0.4,39.7,0.6z"/>
	<path class="st9" d="M45.8,1.8c-0.2-1.4,0-2.7,0.6-3.9c0.3-0.5,0.9-0.6,1.3-0.8c0,0,0.1,0,0.1,0.1c0.2,0.4,0.5,0.8,0.4,1.3
		C48.2-0.5,46.9,1.2,45.8,1.8z"/>
	<path class="st3" d="M44.2-2c0,0.8-0.7,1.5-1.5,1.5c-0.8,0-1.5-0.7-1.5-1.5c0-0.8,0.7-1.5,1.5-1.5C43.5-3.4,44.2-2.8,44.2-2z"/>
	<path class="st3" d="M36.2,1.3c0,0.8-0.6,1.5-1.5,1.5c-0.9,0-1.5-0.7-1.5-1.5c0-0.8,0.6-1.4,1.5-1.4C35.6-0.2,36.2,0.5,36.2,1.3z"
		/>
	<path class="st3" d="M34.7,15.7c0.8,0,1.5,0.7,1.5,1.5c0,0.8-0.7,1.5-1.5,1.5c-0.8,0-1.5-0.7-1.5-1.5
		C33.3,16.4,33.9,15.7,34.7,15.7z"/>
	<path class="st10" d="M50.7,2.8c-0.8,0-1.5-0.7-1.5-1.5c0-0.8,0.7-1.5,1.5-1.5c0.8,0,1.5,0.7,1.5,1.5C52.2,2.1,51.5,2.8,50.7,2.8z"
		/>
	<path class="st10" d="M55.5,9.3c0,0.8-0.7,1.5-1.5,1.5c-0.8,0-1.5-0.7-1.5-1.5c0-0.8,0.7-1.4,1.5-1.4C54.8,7.8,55.5,8.5,55.5,9.3z"
		/>
	<path class="st10" d="M41.2,20.5c0-0.8,0.6-1.5,1.5-1.5c0.8,0,1.5,0.7,1.5,1.5c0,0.8-0.7,1.5-1.5,1.5C41.9,22,41.2,21.4,41.2,20.5z
		"/>
	<path class="st10" d="M52.2,17.2c0,0.8-0.6,1.5-1.5,1.5c-0.8,0-1.5-0.7-1.5-1.5c0-0.8,0.7-1.5,1.5-1.5
		C51.5,15.8,52.2,16.4,52.2,17.2z"/>
	<path class="st11" d="M48.5,8.4c-0.1,0-0.2-0.1-0.2-0.1c-2.2-0.6-2-0.5-0.8-2.4c0.1-0.2,0.3-0.3,0.5-0.1C48,5.9,48.1,5.9,48.2,6
		c0.4,0.2,0.8,0.4,1.2,0.6c-0.2,0.6-0.4,1.1-0.5,1.7C48.8,8.5,48.6,8.4,48.5,8.4z"/>
	<path class="st9" d="M38.9,7.5c0,0.2-0.1,0.3-0.3,0.3c-0.6,0.3-1.2,0.4-1.8,0.5c-0.2,0-0.3-0.1-0.3-0.3c0-0.4-0.2-0.9-0.3-1.3
		c-0.2-0.3,0-0.4,0.2-0.5c0.3-0.1,0.7-0.3,1-0.5c0.4-0.3,0.5-0.2,0.7,0.2C38.4,6.5,38.7,7,38.9,7.5z"/>
	<path class="st12" d="M43.6,15c0.1-0.5,0.3-1.1,0.6-1.7c0.1-0.2,0.2-0.2,0.4-0.1c0.6,0.2,1.1,0.5,1.6,0.8c0.2,0.1,0.3,0.3,0.1,0.5
		c-0.3,0.4-0.5,0.8-0.7,1.2c-0.1,0.3-0.2,0.2-0.4,0.1c-0.4-0.2-0.8-0.4-1.3-0.4C43.5,15.4,43.5,15.3,43.6,15z"/>
	<path class="st12" d="M36.9,10.1c0.6,0.1,1.2,0.3,1.8,0.6c0.2,0.1,0.2,0.2,0.1,0.4c-0.2,0.6-0.5,1.1-0.8,1.6
		c-0.1,0.2-0.3,0.3-0.5,0.1c-0.4-0.3-0.8-0.5-1.2-0.7C36,12,36,11.9,36.1,11.7c0.2-0.4,0.3-0.8,0.4-1.3
		C36.6,10.1,36.7,10.1,36.9,10.1z"/>
	<path class="st12" d="M49.3,11.9c0.1,0.2-0.1,0.2-0.2,0.3c-0.4,0.2-0.8,0.3-1.1,0.6c-0.3,0.3-0.5,0.1-0.6-0.1
		c-0.3-0.4-0.5-0.9-0.7-1.4c-0.1-0.3-0.1-0.4,0.2-0.5c0.5-0.2,1.1-0.4,1.7-0.5c0.2,0,0.4,0,0.4,0.3C48.9,11,49.1,11.5,49.3,11.9z"/>
	<path class="st9" d="M41.8,3.4c-0.1,0.7-0.3,1.3-0.6,1.9c-0.1,0.2-0.1,0.2-0.4,0.1c-0.6-0.2-1.1-0.5-1.7-0.9
		C39,4.4,39,4.3,39.2,4.1c0.3-0.4,0.5-0.8,0.7-1.2c0.1-0.2,0.1-0.2,0.3-0.1c0.5,0.2,0.9,0.4,1.5,0.4C41.8,3.2,41.8,3.2,41.8,3.4z"/>
	<path class="st12" d="M41.8,15c0,0.2,0,0.4-0.3,0.4c-0.4,0-0.8,0.1-1.1,0.3c-0.3,0.1-0.5,0.1-0.6-0.3c-0.1-0.3-0.2-0.6-0.4-0.8
		c-0.4-0.5-0.2-0.7,0.2-0.9c0.4-0.2,0.8-0.4,1.2-0.6c0.3-0.1,0.5-0.1,0.6,0.2C41.5,13.9,41.7,14.5,41.8,15z"/>
	<path class="st12" d="M43.7,3.5c0-0.2,0-0.3,0.3-0.4c0.5-0.1,1.2-0.6,1.5-0.4c0.4,0.2,0.5,1,0.8,1.4c0.1,0.2,0.1,0.3-0.1,0.4
		c-0.5,0.4-1.1,0.7-1.7,0.9c-0.2,0.1-0.3,0.1-0.3-0.1C43.9,4.7,43.8,4.1,43.7,3.5z"/>
	<path class="st1" d="M39.7,20.3c0.4-1,0.5-2,0.4-3c0-0.3-0.3-0.6,0-0.8c0.3-0.2,0.7-0.3,1-0.4c0.6-0.2,0.7-0.2,0.6,0.5
		C41.6,18,40.9,19.3,39.7,20.3z"/>
	<path class="st12" d="M31.7,6.4c0.9,0.3,1.7,0.4,2.6,0.4c0.3,0,0.6-0.1,0.9-0.1c0.3,0,0.4,0,0.4,0.3c0.1,0.3,0.2,0.7,0.3,1
		c0.2,0.5-0.1,0.5-0.4,0.4C34.1,8.3,32.7,7.7,31.7,6.4z"/>
	<path class="st11" d="M32.8,15c1.3-0.6,2.2-1.3,2.9-2.4c0.1-0.1,0.2-0.2,0.3-0.1c0.5,0.2,1.2,0.4,1.3,0.8c0.1,0.4-0.6,0.7-1,0.9
		C35.2,14.8,34.1,15.1,32.8,15z"/>
	<path class="st11" d="M31.7,12c0.9-1.1,2-1.7,3.4-1.9c0.1,0,0.1,0,0.2,0c0.8-0.1,0.8-0.1,0.6,0.7c0,0,0,0,0,0.1
		c-0.3,1-0.3,0.9-1.3,0.8c-0.8-0.1-1.6,0-2.4,0.2C32.1,12,31.9,12,31.7,12z"/>
	<path class="st11" d="M36.8,19c0-1.1,0.1-2.1,0.7-3.1c0.2-0.4,0.5-0.8,0.8-1.2c0.2-0.2,0.3-0.2,0.5,0c0.1,0.1,0.2,0.3,0.2,0.4
		c0.5,0.9,0.4,0.9-0.3,1.4C37.9,17.3,37.3,18.1,36.8,19z"/>
	<path class="st12" d="M32.9,3.5c1.7-0.1,3,0.4,4.2,1.4c0.3,0.2,0.3,0.4,0,0.6c0,0-0.1,0-0.1,0.1c-1,0.6-1,0.6-1.8-0.3
		c-0.3-0.4-0.6-0.7-1-1C33.8,4,33.4,3.8,32.9,3.5z"/>
	<path class="st12" d="M38.6,4c-1.2-1.1-1.8-2.8-1.8-4.5c0.2,0,0.2,0.2,0.3,0.3c0.5,0.9,1.1,1.7,2,2.3c0.3,0.2,0.4,0.4,0.2,0.7
		C39.1,3.2,38.9,3.6,38.6,4z"/>
	<path class="st11" d="M48.4,19.1c-0.5-1.1-1.3-2.1-2.3-2.7c-0.1-0.1-0.2-0.2-0.1-0.3c0.2-0.4,0.4-0.8,0.6-1.2
		c0.1-0.2,0.2-0.2,0.4,0C48,16,48.5,17.4,48.4,19.1z"/>
	<path class="st12" d="M39.9-1.7c1.2,1.1,1.8,2.4,2,3.9c0.1,0.4-0.1,0.5-0.4,0.4c-0.2,0-0.3-0.1-0.5-0.1c-0.8-0.3-0.8-0.3-0.7-1.2
		c0.1-0.9,0-1.8-0.3-2.7c0-0.1-0.1-0.2-0.1-0.2C39.8-1.6,39.8-1.7,39.9-1.7z"/>
	<path class="st1" d="M46.8,4c-0.1-0.1-0.2-0.3-0.3-0.4c-0.6-1.1-0.6-1.1,0.3-1.8c0.7-0.6,1.2-1.4,1.6-2.2C48.8,0.6,47.9,3.2,46.8,4
		z"/>
	<path class="st11" d="M45.5,20.4c-1.1-1.1-1.8-2.3-1.9-3.8c0-0.7,0-0.7,0.7-0.5c0.1,0,0.1,0,0.2,0c0.9,0.3,0.9,0.3,0.7,1.2
		c-0.2,1,0,1.9,0.3,2.8C45.5,20.1,45.5,20.2,45.5,20.4z"/>
	<path class="st11" d="M53.8,6.5c-0.9,1-1.9,1.5-3.1,1.8c-0.4,0.1-1.1,0.3-1.3,0C49.2,8,49.6,7.4,49.8,7c0.1-0.2,0.2-0.3,0.4-0.2
		c1.2,0.3,2.3,0.1,3.4-0.2C53.6,6.5,53.7,6.5,53.8,6.5z"/>
	<path class="st12" d="M52.5,3.6c-1.1,0.6-2.1,1.3-2.7,2.4c-0.1,0.1-0.1,0.1-0.3,0.1c-0.4-0.2-0.8-0.4-1.2-0.6
		c-0.2-0.1-0.2-0.3,0-0.5C49.5,4,50.9,3.5,52.5,3.6z"/>
	<path class="st11" d="M52.5,15.1c-1.7,0.1-3-0.4-4.2-1.4c-0.3-0.3-0.3-0.4,0.1-0.6c0.1,0,0.1-0.1,0.2-0.1c1-0.5,1-0.5,1.7,0.3
		C50.8,14.1,51.6,14.6,52.5,15.1z"/>
	<path class="st12" d="M53.7,12.2c-0.7-0.3-1.5-0.4-2.2-0.5c-0.4,0-0.9,0.1-1.3,0.2c-0.2,0.1-0.3,0-0.4-0.2
		c-0.2-0.4-0.3-0.8-0.4-1.3c0-0.2,0-0.3,0.2-0.3C51.2,10.3,52.6,10.9,53.7,12.2z"/>
	<path class="st11" d="M45.7-1.7c-0.4,1-0.5,1.9-0.4,2.9c0,0.2,0,0.3,0.1,0.5c0,0.1,0,0.2,0,0.3c-0.1,0.2-1.4,0.6-1.6,0.5
		c-0.2-0.1-0.1-0.2-0.1-0.3C43.7,0.7,44.4-0.6,45.7-1.7z"/>
	<path class="st1" d="M39.4,7.4c-0.1,0-0.2-0.1-0.2-0.1c-0.2-0.6-0.5-1.2-1-1.7C38,5.2,38.4,5.1,38.5,5c0.1-0.1,0.2-0.3,0.5-0.1
		c0.5,0.4,1.1,0.7,1.7,0.9c0.2,0.1,0.2,0.1,0.1,0.3C40.4,6.6,40,7,39.4,7.4C39.5,7.4,39.4,7.4,39.4,7.4z"/>
	<path class="st1" d="M39.3,11.1c0.6,0.4,1,0.8,1.4,1.3c0.2,0.2,0.2,0.3-0.1,0.4C40,13,39.4,13.3,39,13.7c-0.2,0.1-0.3,0.1-0.4,0
		c-0.1-0.2-0.5-0.2-0.3-0.6C38.7,12.5,39,11.8,39.3,11.1z"/>
	<path class="st1" d="M46.3,9.3c0-1.1,0-1.1,1-0.8c0.3,0.1,0.6,0.2,0.9,0.2c0.5,0,0.5,0.2,0.5,0.6c0,0.2,0,0.3-0.3,0.3
		c-0.6,0.1-1.2,0.2-1.8,0.5c-0.3,0.1-0.4,0.1-0.4-0.2C46.3,9.8,46.3,9.6,46.3,9.3z"/>
	<path class="st1" d="M39.1,9.3c0,1.1,0,1.1-1,0.7c-0.4-0.1-0.7-0.2-1.1-0.3c-0.3,0-0.3-0.2-0.3-0.5c0-0.3,0-0.4,0.3-0.5
		c0.6-0.1,1.2-0.2,1.7-0.5c0.4-0.2,0.4,0,0.4,0.3C39.1,8.8,39.1,9,39.1,9.3z"/>
	<path class="st1" d="M42.7,12.9c1.1,0,1.1,0,0.8,1c-0.1,0.3-0.1,0.6-0.2,0.9c-0.1,0.2,0,0.5-0.4,0.5c-0.4,0-0.6-0.1-0.6-0.5
		c-0.1-0.5-0.2-1-0.5-1.5c-0.2-0.3-0.1-0.4,0.3-0.4C42.2,12.9,42.4,12.9,42.7,12.9z"/>
	<path class="st1" d="M44.6,12.7c0.3-0.6,0.8-1,1.3-1.4c0.2-0.1,0.3-0.1,0.3,0.1c0.2,0.6,0.5,1.2,0.9,1.6c0.2,0.2,0.1,0.3-0.1,0.4
		c-0.2,0.1-0.2,0.5-0.6,0.3C45.9,13.3,45.3,12.9,44.6,12.7z"/>
	<path class="st1" d="M46,7.4c0,0-0.1-0.1-0.2-0.1c-0.2-0.1-0.3-0.2-0.4-0.4c-0.3-0.3-0.7-0.6-0.7-0.9c0-0.4,0.6-0.4,0.8-0.6
		c0.2-0.2,0.5-0.3,0.8-0.5c0.3-0.2,0.4-0.3,0.7,0c0.2,0.3,0.3,0.4,0,0.7c-0.4,0.4-0.6,0.9-0.8,1.4C46.2,7.2,46.2,7.3,46,7.4z"/>
	<path class="st1" d="M41.6,5.6c0.3-0.7,0.6-1.3,0.6-2c0-0.4,0.3-0.2,0.5-0.2c0.2,0,0.3,0,0.4,0.3c0.1,0.7,0.3,1.3,0.6,2
		C43.1,5.7,42.4,5.7,41.6,5.6z"/>
	<path class="st13" d="M77.4,15.7c0.2,0.5,0.3,1.1,0.5,1.6c0,0.1,0.1,0.2,0,0.3c-0.2,0.1-0.5,0.1-0.7,0.1c-0.1,0-0.1-0.2-0.1-0.2
		c0-0.6,0.1-1.2,0.2-1.8C77.3,15.7,77.3,15.7,77.4,15.7z"/>
	<path class="st13" d="M77,2c0.2,0.5,0.3,1.1,0.5,1.6c0,0.1,0.1,0.2,0,0.3C77.3,4,77,4,76.8,4c-0.1,0-0.1-0.2-0.1-0.2
		c0-0.6,0.1-1.2,0.2-1.8C76.9,2,76.9,2,77,2z"/>
</g>
</svg>
